<svg width="64" height="64" viewBox="0 0 64 64" fill="none" xmlns="http://www.w3.org/2000/svg">
<path d="M29.9986 39.0193L23.4906 32.5112L24.5086 31.4932L29.9986 36.9832L41.4886 25.4912L42.5086 26.5092L29.9986 39.0193ZM46.6266 56.7213H61.9986C62.2366 56.7213 62.4606 56.6012 62.5946 56.4053C62.7286 56.2052 62.7566 55.9552 62.6666 55.7332L60.7746 51.0013L62.6666 46.2693C62.7566 46.0473 62.7286 45.7973 62.5946 45.5973C62.4606 45.3993 62.2366 45.2812 61.9986 45.2812H57.4686C59.5986 41.2033 60.7186 36.6353 60.7186 32.0012C60.7186 16.1652 47.8346 3.28125 31.9986 3.28125C16.1626 3.28125 3.27864 16.1652 3.27864 32.0012C3.27864 36.6353 4.39864 41.2033 6.52864 45.2812H1.99864C1.75864 45.2812 1.53664 45.4013 1.40264 45.5973C1.26864 45.7973 1.24264 46.0473 1.33064 46.2693L3.22264 51.0013L1.32864 55.7332C1.24064 55.9552 1.26664 56.2052 1.40064 56.4053C1.53664 56.6033 1.75864 56.7213 1.99864 56.7213H17.3706C21.7866 59.3393 26.8386 60.7213 31.9986 60.7213C37.1586 60.7213 42.2106 59.3393 46.6266 56.7213ZM43.5486 56.7213C36.3526 60.0813 27.6426 60.0813 20.4486 56.7213H43.5486ZM4.66664 51.2693C4.73464 51.0973 4.73464 50.9053 4.66664 50.7332L3.06264 46.7213H60.9366L59.3306 50.7332C59.2626 50.9053 59.2626 51.0973 59.3306 51.2693L60.9366 55.2812H3.06264L4.66664 51.2693ZM54.7186 32.0012C54.7186 19.4732 44.5246 9.28125 31.9986 9.28125C19.4706 9.28125 9.27864 19.4732 9.27864 32.0012C9.27864 36.7712 10.7906 41.4313 13.5626 45.2812H8.16264C5.90864 41.2412 4.71864 36.6572 4.71864 32.0012C4.71864 16.9592 16.9566 4.72125 31.9986 4.72125C47.0406 4.72125 59.2786 16.9592 59.2786 32.0012C59.2786 36.6572 58.0886 41.2412 55.8326 45.2812H50.4346C53.2066 41.4333 54.7186 36.7712 54.7186 32.0012ZM10.7186 32.0012C10.7186 20.2673 20.2646 10.7213 31.9986 10.7213C43.7326 10.7213 53.2786 20.2673 53.2786 32.0012C53.2786 36.8232 51.6306 41.5252 48.6286 45.2812H15.3706C12.3686 41.5252 10.7186 36.8213 10.7186 32.0012Z" fill="#242424"/>
</svg>
