<svg width="64" height="64" viewBox="0 0 64 64" fill="none" xmlns="http://www.w3.org/2000/svg">
<path d="M62.0013 1.28125H2.00125C1.60325 1.28125 1.28125 1.60325 1.28125 2.00125V22.0012C1.28125 22.3993 1.60325 22.7212 2.00125 22.7212H5.28125V32.0012C5.28125 32.3993 5.60325 32.7213 6.00125 32.7213H8.00125C9.69325 32.7213 11.1673 31.8192 12.0013 30.4772C12.8352 31.8192 14.3092 32.7213 16.0013 32.7213C17.6933 32.7213 19.1672 31.8192 20.0012 30.4772C20.8352 31.8192 22.3092 32.7213 24.0012 32.7213C25.6932 32.7213 27.1672 31.8192 28.0012 30.4772C28.8352 31.8192 30.3092 32.7213 32.0012 32.7213C33.6932 32.7213 35.1673 31.8193 36.0013 30.4792C36.8353 31.8193 38.3092 32.7213 40.0013 32.7213C41.6933 32.7213 43.1673 31.8193 44.0013 30.4792C44.8353 31.8193 46.3092 32.7213 48.0013 32.7213C49.6933 32.7213 51.1673 31.8193 52.0013 30.4792C52.8353 31.8193 54.3092 32.7213 56.0013 32.7213H58.0013C58.3993 32.7213 58.7213 32.3993 58.7213 32.0012V22.7212H62.0013C62.3993 22.7212 62.7213 22.3993 62.7213 22.0012V2.00125C62.7213 1.60325 62.3993 1.28125 62.0013 1.28125ZM52.7213 28.0012C52.7213 27.6032 52.3993 27.2812 52.0013 27.2812C51.6033 27.2812 51.2812 27.6032 51.2812 28.0012C51.2812 29.8092 49.8113 31.2812 48.0013 31.2812C46.1912 31.2812 44.7213 29.8092 44.7213 28.0012C44.7213 27.6032 44.3993 27.2812 44.0013 27.2812C43.6033 27.2812 43.2812 27.6032 43.2812 28.0012C43.2812 29.8092 41.8113 31.2812 40.0013 31.2812C38.1912 31.2812 36.7213 29.8092 36.7213 28.0012C36.7213 27.6032 36.3993 27.2812 36.0013 27.2812C35.6033 27.2812 35.2812 27.6032 35.2812 28.0012C35.2812 29.8092 33.8112 31.2812 32.0012 31.2812C30.1912 31.2812 28.7212 29.8092 28.7212 28.0012C28.7212 27.6032 28.3993 27.2812 28.0012 27.2812C27.6032 27.2812 27.2812 27.6032 27.2812 28.0012C27.2812 29.8092 25.8092 31.2812 24.0012 31.2812C22.1932 31.2812 20.7212 29.8092 20.7212 28.0012C20.7212 27.6032 20.3993 27.2812 20.0012 27.2812C19.6032 27.2812 19.2812 27.6032 19.2812 28.0012C19.2812 29.8092 17.8092 31.2812 16.0013 31.2812C14.1933 31.2812 12.7213 29.8092 12.7213 28.0012C12.7213 27.6032 12.3993 27.2812 12.0013 27.2812C11.6033 27.2812 11.2812 27.6032 11.2812 28.0012C11.2812 29.8092 9.80925 31.2812 8.00125 31.2812H6.72125V22.7212H57.2812V31.2812H56.0013C54.1933 31.2812 52.7213 29.8092 52.7213 28.0012ZM57.2812 21.2812H6.72125V12.7213H57.2812V21.2812ZM61.2812 21.2812H58.7213V12.0013C58.7213 11.6033 58.3993 11.2812 58.0013 11.2812H6.00125C5.60325 11.2812 5.28125 11.6033 5.28125 12.0013V21.2812H2.72125V2.72125H61.2812V21.2812ZM52.0013 56.7213C52.3993 56.7213 52.7213 56.3993 52.7213 56.0013V38.0013C52.7213 37.6033 52.3993 37.2812 52.0013 37.2812H32.0012C31.6032 37.2812 31.2812 37.6033 31.2812 38.0013V56.0013C31.2812 56.3993 31.6032 56.7213 32.0012 56.7213H52.0013ZM32.7213 38.7213H51.2812V55.2793H32.7213V38.7213ZM58.7213 38.0013C58.7213 37.6033 58.3993 37.2812 58.0013 37.2812C57.6033 37.2812 57.2812 37.6033 57.2812 38.0013V61.2812H22.7212V38.0013C22.7212 37.6033 22.3993 37.2812 22.0012 37.2812H12.0013C11.6033 37.2812 11.2812 37.6033 11.2812 38.0013V61.2812H6.72125V38.0013C6.72125 37.6033 6.39925 37.2812 6.00125 37.2812C5.60325 37.2812 5.28125 37.6033 5.28125 38.0013V61.2812H2.00125V62.7233H12.0013H22.0012H62.0013V61.2812H58.7213V38.0013ZM12.7193 38.7213H21.2812V49.2793H12.7193V38.7213ZM12.7193 61.2812V50.7213H21.2812V61.2793L12.7193 61.2812Z" fill="#242424"/>
</svg>
