<svg width="24" height="24" viewBox="0 0 24 24" fill="none" xmlns="http://www.w3.org/2000/svg">
<path d="M11.5187 6.71875C8.87227 6.71875 6.71875 8.87198 6.71875 11.5189C6.71875 14.1655 8.87197 16.3187 11.5187 16.3187C14.1652 16.3187 16.3187 14.1655 16.3187 11.5189C16.3187 8.87198 14.1652 6.71875 11.5187 6.71875ZM11.5187 14.5516C9.83594 14.5516 8.46713 13.1909 8.46713 11.5189C8.46713 9.8466 9.83594 8.4862 11.5187 8.4862C13.2013 8.4862 14.5704 9.8466 14.5704 11.5189C14.5704 13.1912 13.2016 14.5516 11.5187 14.5516Z" fill="#242424"/>
<path d="M15.1851 2.87891H7.85271C5.11031 2.87891 2.87891 5.10137 2.87891 7.83342V15.2044C2.87891 17.9362 5.11002 20.1589 7.85271 20.1589H15.1851C17.9278 20.1589 20.1589 17.9362 20.1589 15.2044V7.83342C20.1589 5.10165 17.9278 2.87891 15.1851 2.87891ZM18.5128 15.2044C18.5128 17.0321 17.02 18.5192 15.1851 18.5192H7.85271C6.01785 18.5192 4.52497 17.0321 4.52497 15.2044V7.83342C4.52497 6.00567 6.01785 4.51859 7.85271 4.51859H15.1851C17.02 4.51859 18.5128 6.00567 18.5128 7.83342V15.2044Z" fill="#242424"/>
<path d="M16.3194 7.68172C16.8496 7.68172 17.2794 7.25191 17.2794 6.72172C17.2794 6.19153 16.8496 5.76172 16.3194 5.76172C15.7892 5.76172 15.3594 6.19153 15.3594 6.72172C15.3594 7.25191 15.7892 7.68172 16.3194 7.68172Z" fill="#242424"/>
</svg>
