<svg width="35" height="27" viewBox="0 0 35 27" fill="none" xmlns="http://www.w3.org/2000/svg">
<path fill-rule="evenodd" clip-rule="evenodd" d="M34.0282 26.054C33.9938 26.0394 33.9581 26.0322 33.9191 26.0322C33.8795 26.0322 33.8431 26.0394 33.8087 26.054C33.7743 26.0679 33.7446 26.0877 33.7195 26.1128C33.6943 26.1373 33.6745 26.1664 33.66 26.2001C33.6454 26.2332 33.6381 26.2689 33.6381 26.3065C33.6381 26.3442 33.6454 26.3799 33.66 26.413C33.6745 26.446 33.6943 26.4751 33.7195 26.5003C33.7446 26.5247 33.7743 26.5446 33.8087 26.5591C33.8431 26.5736 33.8795 26.5809 33.9191 26.5809C33.9581 26.5809 33.9938 26.5736 34.0282 26.5591C34.0619 26.5446 34.091 26.5247 34.1168 26.5003C34.1419 26.4751 34.1618 26.446 34.1763 26.413C34.1909 26.3799 34.1981 26.3442 34.1981 26.3065C34.1981 26.2689 34.1909 26.2332 34.1763 26.2001C34.1618 26.1664 34.1419 26.1373 34.1168 26.1128C34.091 26.0877 34.0619 26.0679 34.0282 26.054ZM33.9191 26.5208C33.9489 26.5208 33.9766 26.5148 34.0018 26.5036C34.0276 26.4923 34.05 26.4771 34.0692 26.4579C34.0884 26.4388 34.1036 26.4163 34.1148 26.3899C34.1254 26.3641 34.1314 26.3363 34.1314 26.3065C34.1314 26.2768 34.1254 26.249 34.1148 26.2232C34.1036 26.1975 34.0884 26.1743 34.0692 26.1551C34.05 26.136 34.0276 26.1208 34.0018 26.1095C33.9766 26.099 33.9489 26.0937 33.9191 26.0937C33.8894 26.0937 33.8609 26.099 33.8352 26.1095C33.8087 26.1208 33.7856 26.136 33.7664 26.1551C33.7472 26.1743 33.732 26.1975 33.7214 26.2232C33.7102 26.249 33.7049 26.2768 33.7049 26.3065C33.7049 26.3363 33.7102 26.3641 33.7214 26.3899C33.732 26.4163 33.7472 26.4388 33.7664 26.4579C33.7856 26.4771 33.8087 26.4923 33.8352 26.5036C33.8609 26.5148 33.8894 26.5208 33.9191 26.5208ZM34.011 26.2001C33.9932 26.1856 33.9681 26.1783 33.9357 26.1783H33.818V26.4328H33.8722V26.3376H33.8973L33.9747 26.4328H34.0395L33.9562 26.337C33.9826 26.3337 34.0024 26.3251 34.0163 26.3118C34.0309 26.298 34.0375 26.2808 34.0375 26.2596C34.0375 26.2345 34.0289 26.2146 34.011 26.2001ZM33.8722 26.294V26.2259H33.935C33.9489 26.2259 33.9608 26.2285 33.9694 26.2345C33.9773 26.2398 33.9819 26.2484 33.9819 26.2596C33.9819 26.2708 33.9773 26.2801 33.9694 26.2854C33.9608 26.2907 33.9489 26.294 33.935 26.294H33.8722ZM8.16058 25.0517C8.16058 24.5664 8.47859 24.1678 8.99824 24.1678C9.49475 24.1678 9.82995 24.5492 9.82995 25.0517C9.82995 25.5542 9.49475 25.9356 8.99824 25.9356C8.47859 25.9356 8.16058 25.537 8.16058 25.0517ZM10.3959 23.6713V25.0517V26.4322H9.79557V26.097C9.60516 26.3456 9.31625 26.5016 8.92353 26.5016C8.14934 26.5016 7.54242 25.8953 7.54242 25.0517C7.54242 24.2088 8.14934 23.6018 8.92353 23.6018C9.31625 23.6018 9.60516 23.7579 9.79557 24.0065V23.6713H10.3959ZM30.6822 25.0517C30.6822 24.5664 31.0002 24.1678 31.5199 24.1678C32.017 24.1678 32.3516 24.5492 32.3516 25.0517C32.3516 25.5542 32.017 25.9356 31.5199 25.9356C31.0002 25.9356 30.6822 25.537 30.6822 25.0517ZM32.9182 22.5625V25.0517V26.4322H32.3172V26.097C32.1268 26.3456 31.8379 26.5016 31.4452 26.5016C30.671 26.5016 30.064 25.8953 30.064 25.0517C30.064 24.2088 30.671 23.6018 31.4452 23.6018C31.8379 23.6018 32.1268 23.7579 32.3172 24.0065V22.5625H32.9182ZM17.8475 24.1393C18.2343 24.1393 18.4829 24.382 18.5464 24.8091H17.1137C17.1778 24.4104 17.4198 24.1393 17.8475 24.1393ZM16.4843 25.0517C16.4843 24.1909 17.0502 23.6018 17.8594 23.6018C18.633 23.6018 19.1645 24.1909 19.1705 25.0517C19.1705 25.1324 19.1645 25.2077 19.1586 25.2824H17.1084C17.195 25.7796 17.5474 25.9588 17.9342 25.9588C18.2112 25.9588 18.506 25.8543 18.7374 25.6699L19.0316 26.1148C18.6964 26.3978 18.3156 26.5016 17.8998 26.5016C17.0734 26.5016 16.4843 25.9297 16.4843 25.0517ZM25.1082 25.0517C25.1082 24.5664 25.4262 24.1678 25.9458 24.1678C26.4423 24.1678 26.7775 24.5492 26.7775 25.0517C26.7775 25.5542 26.4423 25.9356 25.9458 25.9356C25.4262 25.9356 25.1082 25.537 25.1082 25.0517ZM27.3435 23.6713V25.0517V26.4322H26.7431V26.097C26.5521 26.3456 26.2638 26.5016 25.8711 26.5016C25.0969 26.5016 24.49 25.8953 24.49 25.0517C24.49 24.2088 25.0969 23.6018 25.8711 23.6018C26.2638 23.6018 26.5521 23.7579 26.7431 24.0065V23.6713H27.3435ZM21.7178 25.0517C21.7178 25.8894 22.301 26.5016 23.1909 26.5016C23.6067 26.5016 23.8837 26.409 24.1839 26.1723L23.8956 25.6871C23.6702 25.849 23.4335 25.9356 23.173 25.9356C22.6937 25.9297 22.3413 25.5833 22.3413 25.0517C22.3413 24.5202 22.6937 24.1737 23.173 24.1678C23.4335 24.1678 23.6702 24.2544 23.8956 24.4164L24.1839 23.9311C23.8837 23.6944 23.6067 23.6018 23.1909 23.6018C22.301 23.6018 21.7178 24.214 21.7178 25.0517ZM28.7299 24.0065C28.8859 23.7638 29.1113 23.6018 29.4578 23.6018C29.5794 23.6018 29.7526 23.625 29.8855 23.6772L29.7004 24.2431C29.5735 24.1909 29.4465 24.1737 29.3249 24.1737C28.9322 24.1737 28.7358 24.4276 28.7358 24.8844V26.4322H28.1348V23.6713H28.7299V24.0065ZM13.365 23.8908C13.0761 23.7003 12.6781 23.6018 12.2391 23.6018C11.5396 23.6018 11.0894 23.937 11.0894 24.4858C11.0894 24.936 11.4246 25.2137 12.0421 25.3003L12.3257 25.3406C12.655 25.3869 12.8103 25.4735 12.8103 25.6295C12.8103 25.8431 12.5908 25.9647 12.1809 25.9647C11.7651 25.9647 11.4649 25.8319 11.2626 25.6758L10.9797 26.1432C11.3089 26.3859 11.7248 26.5016 12.175 26.5016C12.9723 26.5016 13.4345 26.1261 13.4345 25.6005C13.4345 25.1152 13.0708 24.8613 12.4699 24.7747L12.1869 24.7337C11.9271 24.6993 11.7188 24.6478 11.7188 24.4626C11.7188 24.2603 11.9152 24.1393 12.2444 24.1393C12.5968 24.1393 12.9379 24.2722 13.1052 24.376L13.365 23.8908ZM20.3837 24.0065C20.539 23.7638 20.7645 23.6018 21.1109 23.6018C21.2326 23.6018 21.4058 23.625 21.5387 23.6772L21.3536 24.2431C21.2266 24.1909 21.0997 24.1737 20.978 24.1737C20.5853 24.1737 20.389 24.4276 20.389 24.8844V26.4322H19.7886V23.6713H20.3837V24.0065ZM15.9878 23.6713H15.006V22.8336H14.3991V23.6713H13.8391V24.22H14.3991V25.4795C14.3991 26.1201 14.6476 26.5016 15.3577 26.5016C15.6182 26.5016 15.9184 26.4209 16.1088 26.288L15.9355 25.7737C15.7564 25.8775 15.56 25.9297 15.404 25.9297C15.1038 25.9297 15.006 25.7446 15.006 25.4676V24.22H15.9878V23.6713ZM7.01152 24.6993V26.4322H6.4046V24.8957C6.4046 24.4276 6.20824 24.1678 5.79834 24.1678C5.39967 24.1678 5.12265 24.4223 5.12265 24.9016V26.4322H4.51573V24.8957C4.51573 24.4276 4.31408 24.1678 3.91542 24.1678C3.50485 24.1678 3.23907 24.4223 3.23907 24.9016V26.4322H2.63281V23.6713H3.23379V24.0117C3.45923 23.6884 3.74749 23.6018 4.04236 23.6018C4.46416 23.6018 4.76432 23.787 4.95473 24.0931C5.20926 23.7056 5.57289 23.5959 5.92527 23.6018C6.59567 23.6078 7.01152 24.0468 7.01152 24.6993Z" fill="#242424"/>
<path d="M22.2897 18.988H13.1914V2.63672H22.2897V18.988Z" fill="#FF5F00"/>
<path d="M13.7743 10.8092C13.7743 7.49225 15.3273 4.53763 17.7458 2.63356C15.9772 1.2412 13.7452 0.410156 11.3195 0.410156C5.57694 0.410156 0.921875 5.06588 0.921875 10.8092C0.921875 16.5525 5.57694 21.2082 11.3195 21.2082C13.7452 21.2082 15.9772 20.3772 17.7458 18.9848C15.3273 17.0808 13.7743 14.1261 13.7743 10.8092Z" fill="#EB001B"/>
<path d="M34.559 10.8092C34.559 16.5525 29.9039 21.2082 24.1613 21.2082C21.7356 21.2082 19.5036 20.3772 17.7344 18.9848C20.1535 17.0808 21.7065 14.1261 21.7065 10.8092C21.7065 7.49225 20.1535 4.53763 17.7344 2.63356C19.5036 1.2412 21.7356 0.410156 24.1613 0.410156C29.9039 0.410156 34.559 5.06588 34.559 10.8092Z" fill="#F79E1B"/>
</svg>
