<svg width="24" height="24" viewBox="0 0 24 24" fill="none" xmlns="http://www.w3.org/2000/svg">
<path d="M10.2109 4.63096C10.8537 4.06077 11.7637 3.86696 12.6261 3.84452C13.5364 3.83704 14.4467 3.84078 15.3567 3.84078C15.3607 4.73897 15.3607 5.63343 15.3567 6.53162C14.77 6.53162 14.179 6.53162 13.5923 6.53162C13.2209 6.50918 12.8378 6.77382 12.7699 7.12052C12.7619 7.72064 12.7659 8.32053 12.7659 8.92065C13.6281 8.92439 14.4905 8.92065 15.3527 8.92439C15.2888 9.79266 15.1731 10.6574 15.0374 11.5147C14.2749 11.5222 13.5124 11.5147 12.7499 11.5184C12.7418 14.0788 12.7539 16.6355 12.7458 19.1961C11.612 19.1998 10.4823 19.1924 9.34846 19.1998C9.32842 16.6395 9.34846 14.0791 9.33644 11.5184C8.78552 11.5147 8.2306 11.5222 7.67969 11.5147C7.68369 10.6537 7.67969 9.79289 7.67969 8.93561C8.2306 8.92813 8.78552 8.93561 9.33644 8.93187C9.35246 8.09703 9.32041 7.25845 9.35246 6.42361C9.41256 5.75663 9.68001 5.08941 10.2109 4.63096Z" fill="#242424"/>
</svg>
