<svg width="42" height="13" viewBox="0 0 42 13" fill="none" xmlns="http://www.w3.org/2000/svg">
<g clip-path="url(#clip0_9096:30490)">
<path fill-rule="evenodd" clip-rule="evenodd" d="M9.88978 2.4169L8.36743 7.69053H8.10698L6.58463 2.4169C6.32418 1.52451 5.50686 0.910156 4.5728 0.910156H0.921875V12.3901H4.57729V5.60529H4.83776L6.93042 12.3901H9.54401L11.6321 5.60529H11.8926V12.3901H15.548V0.910156H11.8971C10.9675 0.910156 10.1502 1.52451 9.88978 2.4169ZM30.1292 12.3901H33.8071V8.99548H37.5076C39.443 8.99548 41.0912 7.90129 41.7287 6.36315H30.1292V12.3901ZM21.0401 7.69502L23.6133 2.12094C23.9546 1.3855 24.6955 0.910156 25.5128 0.910156H28.6159V12.3901H24.9605V5.60978H24.7L22.1268 11.1794C21.7855 11.9148 21.0446 12.3901 20.2273 12.3901H17.1243V0.910156H20.7797V7.69502H21.0401Z" fill="#006848"/>
<path d="M37.8696 0.910156C38.9249 0.910156 39.8814 1.31375 40.6044 1.97744C41.4128 2.71287 41.9202 3.7712 41.9202 4.95058C41.9202 5.19273 41.8933 5.4304 41.8528 5.66359H35.0629C32.7637 5.66359 30.8147 4.15684 30.1591 2.07609C30.1501 2.05367 30.1456 2.02676 30.1366 1.99986C30.1187 1.93708 30.1052 1.86981 30.0872 1.80703C30.0199 1.51554 29.975 1.21958 29.957 0.910156H37.8696Z" fill="url(#paint0_linear_9096:30490)"/>
</g>
<defs>
<linearGradient id="paint0_linear_9096:30490" x1="41.9202" y1="13.4144" x2="30.0302" y2="13.4144" gradientUnits="userSpaceOnUse">
<stop stop-color="#1E5CD8"/>
<stop offset="1" stop-color="#02AFFF"/>
</linearGradient>
<clipPath id="clip0_9096:30490">
<rect width="42" height="12" fill="white" transform="translate(0 0.5)"/>
</clipPath>
</defs>
</svg>
