<svg width="56" height="22" viewBox="0 0 56 22" fill="none" xmlns="http://www.w3.org/2000/svg">
<g clip-path="url(#clip0_2422_3695)">
<path d="M26.8027 10.7476V17.1966H24.7568V1.2706H30.1828C30.8305 1.25707 31.4744 1.37194 32.0775 1.60858C32.6805 1.84522 33.2307 2.19894 33.6964 2.64933C34.1667 3.07238 34.541 3.59121 34.7941 4.17094C35.0473 4.75067 35.1734 5.37787 35.164 6.01039C35.1775 6.6463 35.0533 7.2776 34.8 7.86102C34.5467 8.44444 34.1702 8.9662 33.6964 9.39051C32.7476 10.2953 31.5764 10.7472 30.1828 10.7464H26.8027V10.7476ZM26.8027 3.23132V8.79073H30.2336C30.6098 8.80188 30.9841 8.7344 31.3327 8.59261C31.6812 8.45083 31.9964 8.23785 32.2579 7.9673C32.5181 7.71435 32.7249 7.4118 32.8661 7.07753C33.0073 6.74326 33.0801 6.38407 33.0801 6.02119C33.0801 5.65832 33.0073 5.29913 32.8661 4.96486C32.7249 4.63059 32.5181 4.32804 32.2579 4.07508C31.9996 3.79884 31.6856 3.58064 31.3366 3.43496C30.9876 3.28927 30.6117 3.21943 30.2336 3.23005H26.8027V3.23132Z" fill="#5F6368"/>
<path d="M39.8786 5.94434C41.3907 5.94434 42.5843 6.34843 43.4594 7.1566C44.3345 7.96478 44.7717 9.07285 44.7708 10.4808V17.1966H42.8139V15.6844H42.725C41.8778 16.9297 40.7511 17.5524 39.3448 17.5524C38.1444 17.5524 37.1401 17.1966 36.332 16.485C35.9441 16.1584 35.634 15.7493 35.4243 15.2877C35.2146 14.826 35.1105 14.3234 35.1197 13.8165C35.1197 12.6889 35.5458 11.7922 36.398 11.1263C37.2503 10.4605 38.388 10.1267 39.8112 10.125C41.026 10.125 42.0265 10.3474 42.8126 10.7921V10.3245C42.815 9.9789 42.7403 9.6371 42.5942 9.3239C42.448 9.0107 42.234 8.73396 41.9676 8.51373C41.4266 8.02562 40.7215 7.75929 39.9929 7.76782C38.8501 7.76782 37.9458 8.24985 37.2799 9.2139L35.478 8.07915C36.4692 6.65594 37.936 5.94434 39.8786 5.94434ZM37.2316 13.8609C37.2303 14.1213 37.2911 14.3782 37.4092 14.6103C37.5272 14.8424 37.699 15.0429 37.9102 15.1952C38.3627 15.5511 38.9243 15.7397 39.4999 15.7289C40.3632 15.7274 41.1907 15.3838 41.8012 14.7733C42.4789 14.1354 42.8177 13.387 42.8177 12.5279C42.1798 12.0197 41.2903 11.7655 40.1492 11.7655C39.3182 11.7655 38.6252 11.9659 38.0703 12.3666C37.5099 12.7732 37.2316 13.2675 37.2316 13.8609Z" fill="#5F6368"/>
<path d="M56.0042 6.2998L49.1728 21.9996H47.0609L49.596 16.5062L45.104 6.2998H47.3278L50.5744 14.1274H50.6189L53.7767 6.2998H56.0042Z" fill="#5F6368"/>
<path d="M18.5358 9.35741C18.5365 8.73393 18.4838 8.11154 18.3782 7.49707H9.75V11.0208H14.6918C14.5907 11.5836 14.3767 12.1201 14.0626 12.5979C13.7486 13.0757 13.341 13.485 12.8645 13.8011V16.0884H15.8139C17.5408 14.4962 18.5358 12.1416 18.5358 9.35741Z" fill="#4285F4"/>
<path d="M9.74974 18.2985C12.2188 18.2985 14.2977 17.4878 15.8136 16.09L12.8643 13.8027C12.0434 14.3593 10.9862 14.677 9.74974 14.677C7.36333 14.677 5.3378 13.0682 4.61349 10.9004H1.5752V13.2576C2.3367 14.7729 3.50438 16.0467 4.94787 16.9369C6.39136 17.827 8.05386 18.2985 9.74974 18.2985Z" fill="#34A853"/>
<path d="M4.6136 10.9003C4.23068 9.76434 4.23068 8.53417 4.6136 7.3982V5.04102H1.5753C0.934699 6.31574 0.601074 7.72262 0.601074 9.14926C0.601074 10.5759 0.934699 11.9828 1.5753 13.2575L4.6136 10.9003Z" fill="#FBBC04"/>
<path d="M9.74974 3.62118C11.0545 3.59986 12.3152 4.09284 13.2595 4.99356L15.8708 2.38223C14.2149 0.82696 12.0213 -0.0269078 9.74974 -0.00037629C8.05385 -0.000298998 6.39136 0.471131 4.94787 1.36128C3.50438 2.25143 2.3367 3.52527 1.5752 5.04057L4.61349 7.39776C5.3378 5.22991 7.36333 3.62118 9.74974 3.62118Z" fill="#EA4335"/>
</g>
<defs>
<clipPath id="clip0_2422_3695">
<rect width="55.3996" height="22" fill="white" transform="translate(0.600586)"/>
</clipPath>
</defs>
</svg>
