<svg width="24" height="24" viewBox="0 0 24 24" fill="none" xmlns="http://www.w3.org/2000/svg">
<path d="M22.5003 8.01102L21.0003 3.51102C20.9481 3.35578 20.8465 3.2219 20.7111 3.12981C20.5757 3.03771 20.4138 2.99248 20.2503 3.00102H3.75029C3.58674 2.99248 3.42489 3.03771 3.28947 3.12981C3.15404 3.2219 3.05248 3.35578 3.00029 3.51102L1.50029 8.01102C1.48949 8.09066 1.48949 8.17138 1.50029 8.25102V12.751C1.50029 12.9499 1.57931 13.1407 1.71996 13.2814C1.86061 13.422 2.05138 13.501 2.25029 13.501H3.00029V21.001H4.50029V13.501H9.00029V21.001H21.0003V13.501H21.7503C21.9492 13.501 22.14 13.422 22.2806 13.2814C22.4213 13.1407 22.5003 12.9499 22.5003 12.751V8.25102C22.5111 8.17138 22.5111 8.09066 22.5003 8.01102ZM19.5003 19.501H10.5003V13.501H19.5003V19.501ZM21.0003 12.001H18.0003V9.00102H16.5003V12.001H12.7503V9.00102H11.2503V12.001H7.50029V9.00102H6.00029V12.001H3.00029V8.37102L4.29029 4.50102H19.7103L21.0003 8.37102V12.001Z" fill="#242424"/>
</svg>
