<svg width="22" height="19" viewBox="0 0 22 19" fill="none" xmlns="http://www.w3.org/2000/svg">
<path d="M15.8355 0.500002L15.8352 0.500002C15.156 0.499426 14.4835 0.634467 13.8571 0.897206C13.2308 1.15994 12.6632 1.54509 12.1876 2.03007L12.1858 2.03197L12.1858 2.03197L11.3533 2.87197L10.9981 3.2303L10.643 2.87197L9.81049 2.03197L9.80914 2.03061C9.33289 1.54638 8.76501 1.1618 8.13861 0.899287C7.5122 0.636771 6.83981 0.501573 6.16062 0.501573C5.48144 0.501573 4.80904 0.636771 4.18264 0.899287C3.55625 1.16179 2.98839 1.54636 2.51214 2.03056L15.8355 0.500002ZM15.8355 0.500002C16.5148 0.500189 17.1872 0.635612 17.8136 0.898375C18.44 1.16114 19.0079 1.54598 19.484 2.03047C20.4557 3.01968 21.0002 4.35087 21.0002 5.7375C21.0002 7.12384 20.4559 8.45477 19.4846 9.44392C19.4844 9.44415 19.4842 9.44438 19.4839 9.44461L10.9981 18.0384M15.8355 0.500002L10.9981 18.0384M10.9981 18.0384L2.51231 9.44461C2.51216 9.44446 2.512 9.4443 2.51185 9.44414C1.5404 8.45497 0.996094 7.12395 0.996094 5.7375C0.996094 4.35094 1.54049 3.01981 2.5121 2.03061L10.9981 18.0384Z" fill="white" stroke="#242424"/>
</svg>
