<svg width="46" height="58" viewBox="0 0 46 58" fill="none" xmlns="http://www.w3.org/2000/svg">
<path d="M1.60782 31.2696C5.17342 40.8522 22.9941 58 22.9941 58C22.9941 58 40.8292 40.8522 44.3948 31.2696C47.9604 21.687 47.4438 0.806956 22.9941 0C-1.45566 0.806956 -1.95778 21.687 1.60782 31.2696Z" fill="#5B5B5B"/>
<path fill-rule="evenodd" clip-rule="evenodd" d="M9 15.4372L9 17.0909L22.9502 13.7141L36.9973 17.0427L37 15.449L22.8477 12L9 15.4372Z" fill="white"/>
<path fill-rule="evenodd" clip-rule="evenodd" d="M31.9112 12L35.303 12.0067L35.3009 13.697L31.9091 13.6903L31.9112 12Z" fill="white"/>
<path d="M18.6021 23.5255L18.6114 17.7879L26.7654 17.8006L26.7501 27.2733L28 27.2753L27.9911 32.7879L25.4119 32.7839L25.4168 29.7688L19.584 29.7597L19.5791 32.7748L17 32.7708L17.0089 27.2581C17.3594 27.2587 17.6506 27.1541 17.8824 26.9482C18.1141 26.7424 18.29 26.3639 18.4133 25.809C18.5365 25.258 18.6005 24.4931 18.6021 23.5255ZM23.9726 27.269L23.9838 20.3163L21.1864 20.312L21.1811 23.597C21.1782 25.4083 20.9249 26.6305 20.418 27.2635L23.9726 27.269Z" fill="white"/>
</svg>
