<svg width="52" height="52" viewBox="0 0 52 52" fill="none" xmlns="http://www.w3.org/2000/svg">
<rect x="1.5" y="1.5" width="49" height="49" rx="24.5" fill="#5B5B5B" stroke="white" stroke-width="3"/>
<path d="M28.7061 37.4277C25.5044 38.105 22.6323 37.6145 20.0898 35.9094C17.5472 34.2277 15.9464 31.8218 15.2872 28.6919C14.6281 25.5386 15.0989 22.689 16.7468 20.143C18.3712 17.5737 20.796 15.9387 23.9977 15.2613C25.9281 14.8408 27.788 14.9343 29.6007 15.4949C31.4369 16.0321 32.9672 16.9898 34.2149 18.3211L31.0367 21.1941C30.3069 20.3533 29.3888 19.7693 28.3059 19.4423C27.2229 19.0919 26.0694 19.0686 24.8452 19.3255C22.7735 19.7693 21.2433 20.7737 20.231 22.3386C19.2423 23.9036 18.9833 25.7255 19.4071 27.781C19.8308 29.8364 20.8196 31.3781 22.3498 32.4058C23.9035 33.4335 25.7163 33.7372 27.7879 33.2934C29.0121 33.0364 30.048 32.5459 30.8955 31.7985C31.7665 31.051 32.3551 30.1401 32.6847 29.089L36.7574 30.4204C36.1688 32.1489 35.1565 33.6437 33.744 34.9051C32.3315 36.1897 30.6601 37.0072 28.7061 37.4277Z" fill="white"/>
</svg>
