<svg width="32" height="24" viewBox="0 0 32 24" fill="none" xmlns="http://www.w3.org/2000/svg">
<path fill-rule="evenodd" clip-rule="evenodd" d="M31.1355 23.1602C31.105 23.1472 31.0732 23.1408 31.0386 23.1408C31.0034 23.1408 30.971 23.1472 30.9404 23.1602C30.9099 23.1726 30.8834 23.1902 30.8611 23.2125C30.8387 23.2342 30.8211 23.2601 30.8083 23.2901C30.7953 23.3195 30.7888 23.3512 30.7888 23.3846C30.7888 23.4182 30.7953 23.4499 30.8083 23.4793C30.8211 23.5086 30.8387 23.5345 30.8611 23.5569C30.8834 23.5786 30.9099 23.5963 30.9404 23.6092C30.971 23.6221 31.0034 23.6286 31.0386 23.6286C31.0732 23.6286 31.105 23.6221 31.1355 23.6092C31.1655 23.5963 31.1914 23.5786 31.2143 23.5569C31.2366 23.5345 31.2543 23.5086 31.2672 23.4793C31.2802 23.4499 31.2866 23.4182 31.2866 23.3846C31.2866 23.3512 31.2802 23.3195 31.2672 23.2901C31.2543 23.2601 31.2366 23.2342 31.2143 23.2125C31.1914 23.1902 31.1655 23.1726 31.1355 23.1602ZM31.0386 23.5751C31.0651 23.5751 31.0897 23.5698 31.1121 23.5598C31.135 23.5498 31.1549 23.5363 31.172 23.5192C31.1891 23.5022 31.2026 23.4822 31.2125 23.4588C31.2219 23.4358 31.2273 23.4111 31.2273 23.3846C31.2273 23.3582 31.2219 23.3335 31.2125 23.3106C31.2026 23.2878 31.1891 23.2671 31.172 23.2501C31.1549 23.2331 31.135 23.2196 31.1121 23.2095C31.0897 23.2002 31.0651 23.1955 31.0386 23.1955C31.0122 23.1955 30.9868 23.2002 30.964 23.2095C30.9404 23.2196 30.9199 23.2331 30.9028 23.2501C30.8858 23.2671 30.8722 23.2878 30.8628 23.3106C30.8529 23.3335 30.8482 23.3582 30.8482 23.3846C30.8482 23.4111 30.8529 23.4358 30.8628 23.4588C30.8722 23.4822 30.8858 23.5022 30.9028 23.5192C30.9199 23.5363 30.9404 23.5498 30.964 23.5598C30.9868 23.5698 31.0122 23.5751 31.0386 23.5751ZM31.1203 23.2901C31.1044 23.2772 31.0821 23.2707 31.0533 23.2707H30.9487V23.4969H30.9969V23.4123H31.0192L31.088 23.4969H31.1456L31.0715 23.4118C31.095 23.4088 31.1126 23.4012 31.125 23.3894C31.1379 23.3771 31.1438 23.3618 31.1438 23.343C31.1438 23.3206 31.1362 23.303 31.1203 23.2901ZM30.9969 23.3735V23.313H31.0527C31.0651 23.313 31.0756 23.3153 31.0833 23.3206C31.0903 23.3254 31.0944 23.333 31.0944 23.343C31.0944 23.3529 31.0903 23.3612 31.0833 23.3659C31.0756 23.3706 31.0651 23.3735 31.0527 23.3735H30.9969ZM8.14209 22.2693C8.14209 21.8379 8.42476 21.4836 8.88668 21.4836C9.32802 21.4836 9.62597 21.8226 9.62597 22.2693C9.62597 22.7159 9.32802 23.055 8.88668 23.055C8.42476 23.055 8.14209 22.7006 8.14209 22.2693ZM10.129 21.0422V22.2693V23.4964H9.59541V23.1984C9.42616 23.4194 9.16935 23.5581 8.82027 23.5581C8.1321 23.5581 7.59261 23.0191 7.59261 22.2693C7.59261 21.52 8.1321 20.9805 8.82027 20.9805C9.16935 20.9805 9.42616 21.1192 9.59541 21.3402V21.0422H10.129ZM28.1613 22.2693C28.1613 21.8379 28.444 21.4836 28.9059 21.4836C29.3478 21.4836 29.6452 21.8226 29.6452 22.2693C29.6452 22.7159 29.3478 23.055 28.9059 23.055C28.444 23.055 28.1613 22.7006 28.1613 22.2693ZM30.1489 20.0566V22.2693V23.4964H29.6147V23.1984C29.4454 23.4194 29.1886 23.5581 28.8395 23.5581C28.1514 23.5581 27.6118 23.0191 27.6118 22.2693C27.6118 21.52 28.1514 20.9805 28.8395 20.9805C29.1886 20.9805 29.4454 21.1192 29.6147 21.3402V20.0566H30.1489ZM16.7527 21.4582C17.0965 21.4582 17.3175 21.674 17.3739 22.0536H16.1004C16.1574 21.6992 16.3725 21.4582 16.7527 21.4582ZM15.541 22.2693C15.541 21.5041 16.044 20.9805 16.7633 20.9805C17.4509 20.9805 17.9234 21.5041 17.9287 22.2693C17.9287 22.341 17.9234 22.4079 17.9181 22.4743H16.0957C16.1727 22.9163 16.4859 23.0756 16.8298 23.0756C17.076 23.0756 17.338 22.9827 17.5437 22.8188L17.8052 23.2142C17.5073 23.4658 17.1688 23.5581 16.7992 23.5581C16.0646 23.5581 15.541 23.0497 15.541 22.2693ZM23.2066 22.2693C23.2066 21.8379 23.4893 21.4836 23.9512 21.4836C24.3925 21.4836 24.6905 21.8226 24.6905 22.2693C24.6905 22.7159 24.3925 23.055 23.9512 23.055C23.4893 23.055 23.2066 22.7006 23.2066 22.2693ZM25.1936 21.0422V22.2693V23.4964H24.6599V23.1984C24.4901 23.4194 24.2339 23.5581 23.8848 23.5581C23.1966 23.5581 22.6571 23.0191 22.6571 22.2693C22.6571 21.52 23.1966 20.9805 23.8848 20.9805C24.2339 20.9805 24.4901 21.1192 24.6599 21.3402V21.0422H25.1936ZM20.193 22.2693C20.193 23.0139 20.7114 23.5581 21.5024 23.5581C21.872 23.5581 22.1182 23.4758 22.385 23.2654L22.1288 22.8341C21.9284 22.978 21.718 23.055 21.4865 23.055C21.0604 23.0497 20.7472 22.7418 20.7472 22.2693C20.7472 21.7968 21.0604 21.4888 21.4865 21.4836C21.718 21.4836 21.9284 21.5606 22.1288 21.7046L22.385 21.2732C22.1182 21.0628 21.872 20.9805 21.5024 20.9805C20.7114 20.9805 20.193 21.5246 20.193 22.2693ZM26.4259 21.3402C26.5646 21.1245 26.765 20.9805 27.073 20.9805C27.181 20.9805 27.335 21.0011 27.4531 21.0475L27.2886 21.5505C27.1758 21.5041 27.0629 21.4888 26.9548 21.4888C26.6058 21.4888 26.4312 21.7145 26.4312 22.1206V23.4964H25.897V21.0422H26.4259V21.3402ZM12.7682 21.2374C12.5114 21.068 12.1577 20.9805 11.7674 20.9805C11.1457 20.9805 10.7455 21.2784 10.7455 21.7662C10.7455 22.1664 11.0434 22.4133 11.5923 22.4902L11.8444 22.5261C12.1371 22.5672 12.2752 22.6442 12.2752 22.7829C12.2752 22.9727 12.0801 23.0808 11.7157 23.0808C11.3461 23.0808 11.0793 22.9628 10.8994 22.824L10.648 23.2395C10.9406 23.4552 11.3103 23.5581 11.7105 23.5581C12.4192 23.5581 12.83 23.2243 12.83 22.7571C12.83 22.3257 12.5067 22.1 11.9726 22.023L11.721 21.9866C11.4901 21.956 11.305 21.9102 11.305 21.7456C11.305 21.5658 11.4795 21.4582 11.7722 21.4582C12.0854 21.4582 12.3886 21.5764 12.5373 21.6686L12.7682 21.2374ZM19.0071 21.3402C19.1451 21.1245 19.3456 20.9805 19.6535 20.9805C19.7617 20.9805 19.9156 21.0011 20.0338 21.0475L19.8692 21.5505C19.7563 21.5041 19.6435 21.4888 19.5354 21.4888C19.1863 21.4888 19.0118 21.7145 19.0118 22.1206V23.4964H18.4781V21.0422H19.0071V21.3402ZM15.0996 21.0422H14.2269V20.2976H13.6874V21.0422H13.1897V21.53H13.6874V22.6495C13.6874 23.219 13.9083 23.5581 14.5395 23.5581C14.7711 23.5581 15.0379 23.4863 15.2072 23.3682L15.0531 22.911C14.8939 23.0033 14.7194 23.0497 14.5807 23.0497C14.3139 23.0497 14.2269 22.8852 14.2269 22.639V21.53H15.0996V21.0422ZM7.1207 21.956V23.4964H6.58122V22.1306C6.58122 21.7145 6.40668 21.4836 6.04232 21.4836C5.68795 21.4836 5.44171 21.7098 5.44171 22.1358V23.4964H4.90222V22.1306C4.90222 21.7145 4.72298 21.4836 4.36861 21.4836C4.00366 21.4836 3.76741 21.7098 3.76741 22.1358V23.4964H3.22852V21.0422H3.76272V21.3448C3.96311 21.0574 4.21934 20.9805 4.48145 20.9805C4.85638 20.9805 5.12319 21.1451 5.29244 21.4172C5.51869 21.0727 5.84192 20.9752 6.15515 20.9805C6.75106 20.9858 7.1207 21.376 7.1207 21.956Z" fill="#242424"/>
<path d="M20.7007 16.8772H12.6133V2.34277H20.7007V16.8772Z" fill="#FF5F00"/>
<path d="M13.1314 9.6088C13.1314 6.66043 14.5119 4.0341 16.6617 2.3416C15.0896 1.10394 13.1056 0.365234 10.9494 0.365234C5.84487 0.365234 1.70703 4.50366 1.70703 9.6088C1.70703 14.714 5.84487 18.8524 10.9494 18.8524C13.1056 18.8524 15.0896 18.1137 16.6617 16.876C14.5119 15.1836 13.1314 12.5572 13.1314 9.6088Z" fill="#EB001B"/>
<path d="M31.608 9.6088C31.608 14.714 27.4702 18.8524 22.3656 18.8524C20.2095 18.8524 18.2255 18.1137 16.6528 16.876C18.8031 15.1836 20.1836 12.5572 20.1836 9.6088C20.1836 6.66043 18.8031 4.0341 16.6528 2.3416C18.2255 1.10394 20.2095 0.365234 22.3656 0.365234C27.4702 0.365234 31.608 4.50366 31.608 9.6088Z" fill="#F79E1B"/>
</svg>
