<svg width="24" height="24" viewBox="0 0 24 24" fill="none" xmlns="http://www.w3.org/2000/svg">
<path d="M12 12H3V13.5H12V12Z" fill="#C4C4C4"/>
<path d="M9 8.25H1.5V9.75H9V8.25Z" fill="#C4C4C4"/>
<path d="M22.4388 12.4548L20.1888 7.2048C20.1311 7.06979 20.0351 6.95469 19.9125 6.87383C19.79 6.79297 19.6464 6.74991 19.4996 6.75H17.2496V5.25C17.2496 5.05109 17.1706 4.86032 17.0299 4.71967C16.8893 4.57902 16.6985 4.5 16.4996 4.5H4.49959V6H15.7496V15.4172C15.4079 15.6156 15.1088 15.8797 14.8697 16.1943C14.6305 16.5089 14.456 16.8677 14.3562 17.25H9.64302C9.46047 16.543 9.02635 15.9269 8.42201 15.517C7.81768 15.1072 7.08463 14.9319 6.36027 15.0239C5.63591 15.1159 4.96997 15.4689 4.48728 16.0168C4.00459 16.5647 3.73828 17.2698 3.73828 18C3.73828 18.7302 4.00459 19.4353 4.48728 19.9832C4.96997 20.5311 5.63591 20.8841 6.36027 20.9761C7.08463 21.0681 7.81768 20.8928 8.42201 20.483C9.02635 20.0731 9.46047 19.457 9.64302 18.75H14.3562C14.5197 19.3933 14.893 19.9638 15.417 20.3712C15.941 20.7787 16.5858 20.9999 17.2496 20.9999C17.9134 20.9999 18.5582 20.7787 19.0822 20.3712C19.6062 19.9638 19.9795 19.3933 20.143 18.75H21.7496C21.9485 18.75 22.1393 18.671 22.2799 18.5303C22.4206 18.3897 22.4996 18.1989 22.4996 18V12.75C22.4996 12.6485 22.4789 12.548 22.4388 12.4548ZM6.74959 19.5C6.45292 19.5 6.16291 19.412 5.91624 19.2472C5.66956 19.0824 5.47731 18.8481 5.36377 18.574C5.25024 18.2999 5.22054 17.9983 5.27842 17.7074C5.33629 17.4164 5.47915 17.1491 5.68893 16.9393C5.89871 16.7296 6.16599 16.5867 6.45696 16.5288C6.74793 16.4709 7.04953 16.5006 7.32362 16.6142C7.59771 16.7277 7.83198 16.92 7.9968 17.1666C8.16162 17.4133 8.24959 17.7033 8.24959 18C8.24914 18.3977 8.09095 18.779 7.80975 19.0602C7.52854 19.3414 7.14728 19.4995 6.74959 19.5ZM17.2496 8.25H19.0052L20.6125 12H17.2496V8.25ZM17.2496 19.5C16.9529 19.5 16.6629 19.412 16.4162 19.2472C16.1696 19.0824 15.9773 18.8481 15.8638 18.574C15.7502 18.2999 15.7205 17.9983 15.7784 17.7074C15.8363 17.4164 15.9792 17.1491 16.1889 16.9393C16.3987 16.7296 16.666 16.5867 16.957 16.5288C17.2479 16.4709 17.5495 16.5006 17.8236 16.6142C18.0977 16.7277 18.332 16.92 18.4968 17.1666C18.6616 17.4133 18.7496 17.7033 18.7496 18C18.7491 18.3977 18.591 18.779 18.3097 19.0602C18.0285 19.3414 17.6473 19.4995 17.2496 19.5ZM20.9996 17.25H20.143C19.9778 16.6076 19.604 16.0382 19.0804 15.631C18.5568 15.2239 17.9129 15.0019 17.2496 15V13.5H20.9996V17.25Z" fill="#C4C4C4"/>
</svg>
