<svg width="38" height="36" viewBox="0 0 38 36" fill="none" xmlns="http://www.w3.org/2000/svg">
<path d="M18.9996 6.15L22.4496 13.125L23.0246 14.375L24.2746 14.5625L31.9746 15.675L26.4996 21.05L25.5621 21.9625L25.7871 23.2125L27.0996 30.875L20.2121 27.2625L18.9996 26.75L17.8371 27.3625L10.9496 30.925L12.1996 23.2625L12.4246 22.0125L11.4996 21.05L5.97461 15.6125L13.6746 14.5L14.9246 14.3125L15.4996 13.0625L18.9996 6.15ZM18.9996 0.5L13.3121 12.025L0.599609 13.8625L9.79961 22.8375L7.62461 35.5L18.9996 29.525L30.3746 35.5L28.1996 22.8375L37.3996 13.875L24.6871 12.025L18.9996 0.5Z" fill="#F4B556"/>
</svg>
