<svg width="24" height="24" viewBox="0 0 24 24" fill="none" xmlns="http://www.w3.org/2000/svg">
<path d="M2.80001 13.15C1.64569 11.9723 0.999115 10.389 0.999115 8.74C0.999115 7.09095 1.64569 5.50765 2.80001 4.33C3.36916 3.7551 4.04974 3.30251 4.80002 3C5.5483 2.68343 6.35252 2.52032 7.16502 2.52032C7.97751 2.52032 8.78173 2.68343 9.53001 3C10.2812 3.30992 10.9616 3.7692 11.53 4.35L12.01 4.83L12.49 4.35C13.3444 3.47854 14.441 2.8839 15.6374 2.64318C16.8339 2.40246 18.0751 2.52677 19.2 3C19.952 3.30842 20.6327 3.7679 21.2 4.35C22.3543 5.52765 23.0009 7.11095 23.0009 8.76C23.0009 10.409 22.3543 11.9923 21.2 13.17L12 22.46L2.80001 13.15Z" fill="white"/>
<path d="M16.83 3C17.5747 3.00156 18.3117 3.15085 18.9983 3.43923C19.6849 3.72761 20.3075 4.14934 20.83 4.68C21.8945 5.76125 22.4911 7.2177 22.4911 8.735C22.4911 10.2523 21.8945 11.7088 20.83 12.79L11.99 21.79L3.14999 12.79C2.08552 11.7088 1.48889 10.2523 1.48889 8.735C1.48889 7.2177 2.08552 5.76125 3.14999 4.68C3.67366 4.14814 4.29786 3.72572 4.98628 3.4373C5.6747 3.14889 6.41359 3.00024 7.15999 3C7.90556 2.99915 8.64363 3.14881 9.32999 3.44C10.0181 3.72973 10.6431 4.15093 11.17 4.68L12 5.52L12.83 4.68C13.8885 3.61279 15.3269 3.00867 16.83 3V3ZM16.83 2C15.9545 1.99813 15.0874 2.17154 14.28 2.51C13.4686 2.85897 12.7344 3.36541 12.12 4L12 4.1L11.88 4C11.2661 3.36736 10.5316 2.86413 9.71999 2.52C8.91148 2.17251 8.04 1.99549 7.15999 2C6.2802 1.99775 5.40917 2.17468 4.59999 2.52C3.78837 2.86413 3.05392 3.36736 2.43999 4C1.19642 5.27235 0.500153 6.98086 0.500153 8.76C0.500153 10.5391 1.19642 12.2476 2.43999 13.52L11.29 22.52L12 23.24L12.71 22.52L21.55 13.57C22.7959 12.2989 23.4938 10.5899 23.4938 8.81C23.4938 7.03008 22.7959 5.32112 21.55 4.05C20.9436 3.40047 20.2123 2.88007 19.4 2.52C18.5908 2.17468 17.7198 1.99775 16.84 2H16.83Z" fill="#242424"/>
</svg>
