<svg width="24" height="24" viewBox="0 0 24 24" fill="none" xmlns="http://www.w3.org/2000/svg">
<circle cx="12" cy="12" r="8.5" stroke="#C4C4C4"/>
<path d="M11.9254 8.656C11.2347 8.656 10.6607 8.95467 10.2034 9.552L9.25141 8.474C9.51274 8.04467 9.89074 7.69933 10.3854 7.438C10.8801 7.17667 11.4261 7.046 12.0234 7.046C12.9381 7.046 13.6521 7.284 14.1654 7.76C14.6974 8.22667 14.9634 8.81 14.9634 9.51C14.9634 10.126 14.8421 10.6253 14.5994 11.008C14.3567 11.3813 14.0161 11.7453 13.5774 12.1C13.5214 12.1467 13.4467 12.2073 13.3534 12.282C13.2694 12.3567 13.1994 12.4173 13.1434 12.464C13.0967 12.5013 13.0314 12.5573 12.9474 12.632C12.8727 12.7067 12.8167 12.7673 12.7794 12.814C12.7421 12.8513 12.6907 12.912 12.6254 12.996C12.5694 13.0707 12.5321 13.136 12.5134 13.192C12.4947 13.248 12.4667 13.3227 12.4294 13.416C12.4014 13.5093 12.3921 13.5933 12.4014 13.668C12.4201 13.7427 12.4294 13.836 12.4294 13.948L10.9594 13.962C10.9034 13.6167 10.8987 13.3133 10.9454 13.052C11.0014 12.7813 11.1181 12.5387 11.2954 12.324C11.4821 12.1 11.6314 11.9413 11.7434 11.848C11.8647 11.7453 12.0561 11.596 12.3174 11.4C12.9334 10.9707 13.2414 10.4573 13.2414 9.86C13.2414 9.524 13.1154 9.23933 12.8634 9.006C12.6114 8.77267 12.2987 8.656 11.9254 8.656ZM10.6514 15.95C10.6514 15.6793 10.7541 15.4413 10.9594 15.236C11.1741 15.0213 11.4401 14.914 11.7574 14.914C12.0467 14.914 12.2894 15.0213 12.4854 15.236C12.6907 15.4413 12.7934 15.6793 12.7934 15.95C12.7934 16.258 12.6954 16.524 12.4994 16.748C12.3034 16.9627 12.0561 17.07 11.7574 17.07C11.4401 17.07 11.1741 16.9627 10.9594 16.748C10.7541 16.524 10.6514 16.258 10.6514 15.95Z" fill="#C4C4C4"/>
</svg>
