<svg width="65" height="66" viewBox="0 0 65 66" fill="none" xmlns="http://www.w3.org/2000/svg">
<rect width="65" height="65" transform="translate(0 0.714355)" fill="white"/>
<path d="M53.8165 18.247C56.8186 22.5302 58.4592 27.6159 58.5289 32.8402H55.2157C55.1373 28.0745 53.5617 23.4504 50.7072 19.6255C47.7778 15.7004 43.6583 12.827 38.9629 11.4337C34.2675 10.0404 29.2475 10.2018 24.6513 11.8938C20.0551 13.5859 16.1288 16.7179 13.4576 20.8232L13.0805 21.4027H13.7719H21.9687V24.7152H8.5V11.2464H11.8125V16.3152V17.3535L12.476 16.5548C15.8979 12.4352 20.5072 9.47132 25.6754 8.06728C30.8435 6.66323 36.3189 6.88736 41.355 8.70911C46.3911 10.5309 50.7427 13.8616 53.8165 18.247Z" fill="#922F27" stroke="white" stroke-width="0.75"/>
<path d="M11.1835 48.1825C8.18136 43.8993 6.54084 38.8136 6.47106 33.5894H9.78433C9.86266 38.3551 11.4383 42.9791 14.2928 46.804C17.2222 50.7292 21.3417 53.6026 26.0371 54.9959C30.7325 56.3892 35.7525 56.2278 40.3487 54.5357C44.9449 52.8437 48.8712 49.7116 51.5424 45.6064L51.9195 45.0269H51.2281H43.0313V41.7144H56.5V55.1831H53.1875V50.1144V49.076L52.524 49.8747C49.1021 53.9943 44.4928 56.9582 39.3246 58.3623C34.1565 59.7663 28.6811 59.5422 23.645 57.7204C18.6089 55.8987 14.2573 52.568 11.1835 48.1825Z" fill="#922F27" stroke="white" stroke-width="0.75"/>
<path d="M24.3707 32.6308C25.08 32.7988 25.654 33.1301 26.0927 33.6248C26.5407 34.1101 26.7647 34.7214 26.7647 35.4588C26.7647 36.4388 26.4334 37.2088 25.7707 37.7688C25.108 38.3288 24.296 38.6088 23.3347 38.6088C22.588 38.6088 21.916 38.4361 21.3187 38.0908C20.7307 37.7454 20.306 37.2414 20.0447 36.5788L21.4167 35.7808C21.706 36.6208 22.3454 37.0408 23.3347 37.0408C23.8947 37.0408 24.338 36.9008 24.6647 36.6208C24.9914 36.3314 25.1547 35.9441 25.1547 35.4588C25.1547 34.9734 24.9914 34.5908 24.6647 34.3108C24.338 34.0308 23.8947 33.8908 23.3347 33.8908H22.9707L22.3267 32.9248L24.4407 30.1388H20.3387V28.6268H26.3587V29.9988L24.3707 32.6308ZM31.0773 31.9168C32.0946 31.9168 32.9253 32.2294 33.5693 32.8548C34.2133 33.4708 34.5353 34.2734 34.5353 35.2628C34.5353 36.2521 34.2133 37.0594 33.5693 37.6848C32.9253 38.3008 32.0946 38.6088 31.0773 38.6088C30.0506 38.6088 29.2153 38.3008 28.5713 37.6848C27.9273 37.0594 27.6053 36.2521 27.6053 35.2628C27.6053 34.5161 27.8013 33.8581 28.1933 33.2888L31.3013 28.6268H33.1353L30.8953 31.9168H31.0773ZM31.0773 37.0828C31.6186 37.0828 32.0619 36.9194 32.4073 36.5928C32.7526 36.2568 32.9253 35.8134 32.9253 35.2628C32.9253 34.7121 32.7526 34.2734 32.4073 33.9468C32.0619 33.6108 31.6186 33.4428 31.0773 33.4428C30.5266 33.4428 30.0786 33.6108 29.7333 33.9468C29.3879 34.2734 29.2153 34.7121 29.2153 35.2628C29.2153 35.8134 29.3879 36.2568 29.7333 36.5928C30.0786 36.9194 30.5266 37.0828 31.0773 37.0828ZM42.1222 37.2228C41.4502 38.1468 40.5075 38.6088 39.2942 38.6088C38.0808 38.6088 37.1335 38.1468 36.4522 37.2228C35.7802 36.2988 35.4442 35.0668 35.4442 33.5268C35.4442 31.9868 35.7802 30.7548 36.4522 29.8308C37.1335 28.9068 38.0808 28.4448 39.2942 28.4448C40.5075 28.4448 41.4502 28.9068 42.1222 29.8308C42.8035 30.7548 43.1442 31.9868 43.1442 33.5268C43.1442 35.0668 42.8035 36.2988 42.1222 37.2228ZM39.2942 37.0408C40.0222 37.0408 40.5775 36.7374 40.9602 36.1308C41.3428 35.5241 41.5342 34.6561 41.5342 33.5268C41.5342 32.3974 41.3428 31.5294 40.9602 30.9228C40.5775 30.3161 40.0222 30.0128 39.2942 30.0128C38.5755 30.0128 38.0202 30.3161 37.6282 30.9228C37.2455 31.5294 37.0542 32.3974 37.0542 33.5268C37.0542 34.6561 37.2455 35.5241 37.6282 36.1308C38.0202 36.7374 38.5755 37.0408 39.2942 37.0408ZM45.7773 31.5668C45.1239 31.5668 44.5779 31.3521 44.1393 30.9228C43.7099 30.4841 43.4953 29.9521 43.4953 29.3268C43.4953 28.7014 43.7099 28.1741 44.1393 27.7448C44.5779 27.3061 45.1239 27.0868 45.7773 27.0868C46.4306 27.0868 46.9719 27.3061 47.4013 27.7448C47.8399 28.1741 48.0593 28.7014 48.0593 29.3268C48.0593 29.9521 47.8446 30.4841 47.4153 30.9228C46.9859 31.3521 46.4399 31.5668 45.7773 31.5668ZM45.7773 30.3068C46.0666 30.3068 46.2999 30.2134 46.4773 30.0268C46.6546 29.8401 46.7433 29.6068 46.7433 29.3268C46.7433 29.0468 46.6499 28.8134 46.4633 28.6268C46.2859 28.4401 46.0573 28.3468 45.7773 28.3468C45.4973 28.3468 45.2639 28.4401 45.0773 28.6268C44.8999 28.8134 44.8113 29.0468 44.8113 29.3268C44.8113 29.6068 44.8999 29.8401 45.0773 30.0268C45.2639 30.2134 45.4973 30.3068 45.7773 30.3068Z" fill="#922F27"/>
<path d="M24.3707 32.6308L23.5728 32.028L22.6493 33.2507L24.1402 33.6038L24.3707 32.6308ZM26.0927 33.6248L25.3445 34.2882L25.3511 34.2957L25.3579 34.303L26.0927 33.6248ZM25.7707 37.7688L26.4162 38.5326L25.7707 37.7688ZM21.3187 38.0908L20.8123 38.9531L20.8182 38.9565L21.3187 38.0908ZM20.0447 36.5788L19.5419 35.7143L18.7992 36.1463L19.1144 36.9456L20.0447 36.5788ZM21.4167 35.7808L22.3622 35.4551L21.9659 34.3045L20.9139 34.9163L21.4167 35.7808ZM24.6647 36.6208L25.3155 37.38L25.3217 37.3747L25.3277 37.3693L24.6647 36.6208ZM22.9707 33.8908L22.1387 34.4455L22.4355 34.8908H22.9707V33.8908ZM22.3267 32.9248L21.5301 32.3203L21.0999 32.8873L21.4947 33.4795L22.3267 32.9248ZM24.4407 30.1388L25.2373 30.7432L26.4548 29.1388H24.4407V30.1388ZM20.3387 30.1388H19.3387V31.1388H20.3387V30.1388ZM20.3387 28.6268V27.6268H19.3387V28.6268H20.3387ZM26.3587 28.6268H27.3587V27.6268H26.3587V28.6268ZM26.3587 29.9988L27.1567 30.6015L27.3587 30.334V29.9988H26.3587ZM24.1402 33.6038C24.6708 33.7295 25.0564 33.9634 25.3445 34.2882L26.8409 32.9613C26.2517 32.2968 25.4893 31.868 24.6012 31.6577L24.1402 33.6038ZM25.3579 34.303C25.6151 34.5817 25.7647 34.9412 25.7647 35.4588H27.7647C27.7647 34.5016 27.4663 33.6385 26.8275 32.9465L25.3579 34.303ZM25.7647 35.4588C25.7647 36.1871 25.5324 36.6609 25.1253 37.005L26.4162 38.5326C27.3344 37.7566 27.7647 36.6904 27.7647 35.4588H25.7647ZM25.1253 37.005C24.6629 37.3957 24.0871 37.6088 23.3347 37.6088V39.6088C24.505 39.6088 25.5532 39.2618 26.4162 38.5326L25.1253 37.005ZM23.3347 37.6088C22.7489 37.6088 22.252 37.4752 21.8192 37.225L20.8182 38.9565C21.5801 39.397 22.4272 39.6088 23.3347 39.6088V37.6088ZM21.8251 37.2285C21.4388 37.0016 21.1583 36.6767 20.975 36.2119L19.1144 36.9456C19.4538 37.8062 20.0226 38.4892 20.8123 38.953L21.8251 37.2285ZM20.5475 37.4432L21.9195 36.6452L20.9139 34.9163L19.5419 35.7143L20.5475 37.4432ZM20.4712 36.1064C20.6758 36.7004 21.0307 37.2111 21.5642 37.5615C22.0885 37.906 22.7015 38.0408 23.3347 38.0408V36.0408C22.9786 36.0408 22.7772 35.9655 22.6623 35.89C22.5564 35.8204 22.4469 35.7011 22.3622 35.4551L20.4712 36.1064ZM23.3347 38.0408C24.0601 38.0408 24.7588 37.8572 25.3155 37.38L24.0139 35.8615C23.9173 35.9443 23.7293 36.0408 23.3347 36.0408V38.0408ZM25.3277 37.3693C25.8942 36.8677 26.1547 36.1945 26.1547 35.4588H24.1547C24.1547 35.6937 24.0886 35.7952 24.0017 35.8722L25.3277 37.3693ZM26.1547 35.4588C26.1547 34.7233 25.8937 34.0471 25.3155 33.5515L24.0139 35.07C24.089 35.1344 24.1547 35.2235 24.1547 35.4588H26.1547ZM25.3155 33.5515C24.7588 33.0743 24.0601 32.8908 23.3347 32.8908V34.8908C23.7293 34.8908 23.9173 34.9872 24.0139 35.07L25.3155 33.5515ZM23.3347 32.8908H22.9707V34.8908H23.3347V32.8908ZM23.8028 33.3361L23.1588 32.3701L21.4947 33.4795L22.1387 34.4455L23.8028 33.3361ZM23.1233 33.5292L25.2373 30.7432L23.6441 29.5343L21.5301 32.3203L23.1233 33.5292ZM24.4407 29.1388H20.3387V31.1388H24.4407V29.1388ZM21.3387 30.1388V28.6268H19.3387V30.1388H21.3387ZM20.3387 29.6268H26.3587V27.6268H20.3387V29.6268ZM25.3587 28.6268V29.9988H27.3587V28.6268H25.3587ZM25.5608 29.396L23.5728 32.028L25.1687 33.2335L27.1567 30.6015L25.5608 29.396ZM33.5693 32.8548L32.8726 33.5722L32.878 33.5774L33.5693 32.8548ZM33.5693 37.6848L34.2605 38.4074L34.2659 38.4022L33.5693 37.6848ZM28.5713 37.6848L27.8746 38.4022L27.88 38.4074L28.5713 37.6848ZM28.1933 33.2888L29.0169 33.8559L29.0212 33.8497L29.0253 33.8435L28.1933 33.2888ZM31.3013 28.6268V27.6268H30.7661L30.4692 28.0721L31.3013 28.6268ZM33.1353 28.6268L33.9619 29.1895L35.0259 27.6268H33.1353V28.6268ZM30.8953 31.9168L30.0687 31.354L29.0046 32.9168H30.8953V31.9168ZM32.4073 36.5928L33.0945 37.3193L33.1046 37.3095L32.4073 36.5928ZM32.4073 33.9468L31.7098 34.6636L31.7201 34.6732L32.4073 33.9468ZM29.7333 33.9468L30.4205 34.6733L30.4306 34.6635L29.7333 33.9468ZM29.7333 36.5928L29.0358 37.3096L29.0461 37.3192L29.7333 36.5928ZM31.0773 32.9168C31.8721 32.9168 32.4406 33.1527 32.8726 33.5722L34.2659 32.1373C33.4099 31.3062 32.3171 30.9168 31.0773 30.9168V32.9168ZM32.878 33.5774C33.3021 33.983 33.5353 34.5132 33.5353 35.2628H35.5353C35.5353 34.0337 35.1245 32.9585 34.2605 32.1321L32.878 33.5774ZM33.5353 35.2628C33.5353 36.0122 33.3019 36.5505 32.8726 36.9673L34.2659 38.4022C35.1246 37.5683 35.5353 36.4919 35.5353 35.2628H33.5353ZM32.878 36.9621C32.4468 37.3746 31.8764 37.6088 31.0773 37.6088V39.6088C32.3128 39.6088 33.4038 39.2269 34.2605 38.4074L32.878 36.9621ZM31.0773 37.6088C30.266 37.6088 29.692 37.373 29.2625 36.9621L27.88 38.4074C28.7385 39.2286 29.8352 39.6088 31.0773 39.6088V37.6088ZM29.2679 36.9673C28.8386 36.5505 28.6053 36.0122 28.6053 35.2628H26.6053C26.6053 36.4919 27.0159 37.5683 27.8746 38.4022L29.2679 36.9673ZM28.6053 35.2628C28.6053 34.7016 28.7491 34.2449 29.0169 33.8559L27.3696 32.7217C26.8534 33.4713 26.6053 34.3306 26.6053 35.2628H28.6053ZM29.0253 33.8435L32.1333 29.1815L30.4692 28.0721L27.3612 32.7341L29.0253 33.8435ZM31.3013 29.6268H33.1353V27.6268H31.3013V29.6268ZM32.3087 28.064L30.0687 31.354L31.7219 32.4795L33.9619 29.1895L32.3087 28.064ZM30.8953 32.9168H31.0773V30.9168H30.8953V32.9168ZM31.0773 38.0828C31.8359 38.0828 32.5374 37.8462 33.0945 37.3192L31.7201 35.8663C31.5865 35.9927 31.4012 36.0828 31.0773 36.0828V38.0828ZM33.1046 37.3095C33.6717 36.7578 33.9253 36.0413 33.9253 35.2628H31.9253C31.9253 35.5856 31.8335 35.7558 31.7099 35.876L33.1046 37.3095ZM33.9253 35.2628C33.9253 34.4848 33.6716 33.7662 33.0945 33.2203L31.7201 34.6732C31.8336 34.7807 31.9253 34.9394 31.9253 35.2628H33.9253ZM33.1046 33.23C32.5489 32.6894 31.8441 32.4428 31.0773 32.4428V34.4428C31.3931 34.4428 31.5749 34.5321 31.7099 34.6635L33.1046 33.23ZM31.0773 32.4428C30.3064 32.4428 29.5949 32.6861 29.0359 33.23L30.4306 34.6635C30.5623 34.5354 30.7468 34.4428 31.0773 34.4428V32.4428ZM29.0461 33.2203C28.469 33.7662 28.2153 34.4848 28.2153 35.2628H30.2153C30.2153 34.9394 30.3069 34.7807 30.4205 34.6732L29.0461 33.2203ZM28.2153 35.2628C28.2153 36.0413 28.4689 36.7578 29.0359 37.3095L30.4306 35.876C30.307 35.7558 30.2153 35.5856 30.2153 35.2628H28.2153ZM29.0461 37.3192C29.6064 37.8493 30.3144 38.0828 31.0773 38.0828V36.0828C30.7388 36.0828 30.5508 35.9896 30.4205 35.8663L29.0461 37.3192ZM42.1222 37.2228L41.3173 36.6293L41.3134 36.6346L42.1222 37.2228ZM36.4522 37.2228L35.6434 37.8109L35.6473 37.8162L36.4522 37.2228ZM36.4522 29.8308L35.6473 29.2373L35.6434 29.2426L36.4522 29.8308ZM42.1222 29.8308L41.3134 30.4189L41.3173 30.4242L42.1222 29.8308ZM40.9602 36.1308L41.806 36.6643L40.9602 36.1308ZM40.9602 30.9228L41.806 30.3893L40.9602 30.9228ZM37.6282 30.9228L36.7882 30.38L36.7824 30.3893L37.6282 30.9228ZM37.6282 36.1308L36.7823 36.6643L36.7882 36.6735L37.6282 36.1308ZM41.3134 36.6346C40.8429 37.2816 40.2108 37.6088 39.2942 37.6088V39.6088C40.8042 39.6088 42.0575 39.0119 42.9309 37.8109L41.3134 36.6346ZM39.2942 37.6088C38.3773 37.6088 37.7376 37.2811 37.257 36.6293L35.6473 37.8162C36.5294 39.0124 37.7844 39.6088 39.2942 39.6088V37.6088ZM37.2609 36.6346C36.75 35.932 36.4442 34.9279 36.4442 33.5268H34.4442C34.4442 35.2056 34.8104 36.6655 35.6434 37.8109L37.2609 36.6346ZM36.4442 33.5268C36.4442 32.1256 36.75 31.1215 37.2609 30.4189L35.6434 29.2426C34.8104 30.388 34.4442 31.8479 34.4442 33.5268H36.4442ZM37.257 30.4242C37.7376 29.7724 38.3773 29.4448 39.2942 29.4448V27.4448C37.7844 27.4448 36.5294 28.0411 35.6473 29.2373L37.257 30.4242ZM39.2942 29.4448C40.2108 29.4448 40.8429 29.7719 41.3134 30.4189L42.9309 29.2426C42.0575 28.0416 40.8042 27.4448 39.2942 27.4448V29.4448ZM41.3173 30.4242C41.8349 31.1262 42.1442 32.1282 42.1442 33.5268H44.1442C44.1442 31.8453 43.7721 30.3833 42.927 29.2373L41.3173 30.4242ZM42.1442 33.5268C42.1442 34.9253 41.8349 35.9274 41.3173 36.6293L42.927 37.8162C43.7721 36.6702 44.1442 35.2082 44.1442 33.5268H42.1442ZM39.2942 38.0408C40.3592 38.0408 41.2368 37.5666 41.806 36.6643L40.1144 35.5973C39.9182 35.9083 39.6851 36.0408 39.2942 36.0408V38.0408ZM41.806 36.6643C42.3317 35.8308 42.5342 34.7456 42.5342 33.5268H40.5342C40.5342 34.5666 40.354 35.2174 40.1144 35.5973L41.806 36.6643ZM42.5342 33.5268C42.5342 32.3079 42.3317 31.2228 41.806 30.3893L40.1144 31.4563C40.354 31.8361 40.5342 32.487 40.5342 33.5268H42.5342ZM41.806 30.3893C41.2368 29.487 40.3592 29.0128 39.2942 29.0128V31.0128C39.6851 31.0128 39.9182 31.1452 40.1144 31.4563L41.806 30.3893ZM39.2942 29.0128C38.234 29.0128 37.3633 29.49 36.7882 30.38L38.4681 31.4655C38.677 31.1422 38.917 31.0128 39.2942 31.0128V29.0128ZM36.7824 30.3893C36.2566 31.2228 36.0542 32.3079 36.0542 33.5268H38.0542C38.0542 32.487 38.2344 31.8361 38.474 31.4563L36.7824 30.3893ZM36.0542 33.5268C36.0542 34.7456 36.2566 35.8308 36.7824 36.6643L38.474 35.5973C38.2344 35.2174 38.0542 34.5666 38.0542 33.5268H36.0542ZM36.7882 36.6735C37.3633 37.5635 38.234 38.0408 39.2942 38.0408V36.0408C38.917 36.0408 38.677 35.9114 38.4681 35.588L36.7882 36.6735ZM44.1393 30.9228L43.4246 31.6222L43.4321 31.6299L43.4398 31.6374L44.1393 30.9228ZM44.1393 27.7448L44.8464 28.4519L44.1393 27.7448ZM47.4013 27.7448L46.6866 28.4442L46.6941 28.4519L46.7018 28.4594L47.4013 27.7448ZM47.4153 30.9228L48.1224 31.6299L48.1299 31.6222L47.4153 30.9228ZM46.4773 30.0268L45.7523 29.338L46.4773 30.0268ZM46.4633 28.6268L45.7383 29.3155L45.7471 29.3248L45.7562 29.3339L46.4633 28.6268ZM45.0773 28.6268L44.3702 27.9197L44.3611 27.9287L44.3523 27.938L45.0773 28.6268ZM45.0773 30.0268L44.3523 30.7155L44.3611 30.7248L44.3702 30.7339L45.0773 30.0268ZM45.7773 30.5668C45.3668 30.5668 45.0776 30.4419 44.8387 30.2081L43.4398 31.6374C44.0782 32.2623 44.881 32.5668 45.7773 32.5668V30.5668ZM44.8539 30.2233C44.6113 29.9754 44.4953 29.6961 44.4953 29.3268H42.4953C42.4953 30.2081 42.8085 30.9928 43.4246 31.6222L44.8539 30.2233ZM44.4953 29.3268C44.4953 28.9578 44.6108 28.6875 44.8464 28.4519L43.4322 27.0377C42.8091 27.6607 42.4953 28.4451 42.4953 29.3268H44.4953ZM44.8464 28.4519C45.0867 28.2115 45.3735 28.0868 45.7773 28.0868V26.0868C44.8744 26.0868 44.0692 26.4007 43.4322 27.0377L44.8464 28.4519ZM45.7773 28.0868C46.1809 28.0868 46.4584 28.2111 46.6866 28.4442L48.1159 27.0453C47.4854 26.4011 46.6803 26.0868 45.7773 26.0868V28.0868ZM46.7018 28.4594C46.9442 28.6967 47.0593 28.9647 47.0593 29.3268H49.0593C49.0593 28.4382 48.7356 27.6515 48.1007 27.0301L46.7018 28.4594ZM47.0593 29.3268C47.0593 29.6961 46.9432 29.9754 46.7006 30.2233L48.1299 31.6222C48.746 30.9928 49.0593 30.2081 49.0593 29.3268H47.0593ZM46.7082 30.2157C46.4844 30.4394 46.2014 30.5668 45.7773 30.5668V32.5668C46.6785 32.5668 47.4874 32.2648 48.1224 31.6299L46.7082 30.2157ZM45.7773 31.3068C46.3034 31.3068 46.8119 31.1264 47.2023 30.7155L45.7523 29.338C45.755 29.3351 45.7611 29.3294 45.7704 29.323C45.7798 29.3166 45.7895 29.3116 45.7979 29.3083C45.8061 29.305 45.8101 29.3044 45.808 29.3048C45.8056 29.3053 45.7959 29.3068 45.7773 29.3068V31.3068ZM47.2023 30.7155C47.5723 30.3259 47.7433 29.8386 47.7433 29.3268H45.7433C45.7433 29.3439 45.7419 29.3539 45.7412 29.3578C45.7406 29.3616 45.7404 29.3607 45.742 29.3565C45.7436 29.3523 45.746 29.3475 45.7488 29.343C45.7516 29.3385 45.7533 29.3369 45.7523 29.338L47.2023 30.7155ZM47.7433 29.3268C47.7433 28.7994 47.5568 28.3061 47.1704 27.9197L45.7562 29.3339C45.7584 29.3361 45.7569 29.335 45.7537 29.3302C45.7505 29.3254 45.7473 29.3194 45.7448 29.3131C45.7423 29.307 45.7417 29.3036 45.7419 29.3044C45.7421 29.3054 45.7433 29.3124 45.7433 29.3268H47.7433ZM47.1883 27.938C46.8045 27.5341 46.3047 27.3468 45.7773 27.3468V29.3468C45.7917 29.3468 45.7978 29.348 45.7972 29.3478C45.7963 29.3477 45.7903 29.3464 45.7809 29.3426C45.7713 29.3387 45.7616 29.3335 45.7529 29.3275C45.7443 29.3215 45.7395 29.3168 45.7383 29.3155L47.1883 27.938ZM45.7773 27.3468C45.2499 27.3468 44.7566 27.5332 44.3702 27.9197L45.7844 29.3339C45.7866 29.3316 45.7855 29.3331 45.7807 29.3363C45.7759 29.3395 45.7699 29.3427 45.7637 29.3452C45.7575 29.3477 45.7541 29.3483 45.7549 29.3481C45.7559 29.3479 45.7629 29.3468 45.7773 29.3468V27.3468ZM44.3523 27.938C43.9822 28.3276 43.8113 28.8149 43.8113 29.3268H45.8113C45.8113 29.3096 45.8126 29.2997 45.8133 29.2957C45.8139 29.292 45.8141 29.2929 45.8125 29.297C45.8109 29.3012 45.8086 29.3061 45.8057 29.3106C45.8029 29.315 45.8012 29.3167 45.8023 29.3155L44.3523 27.938ZM43.8113 29.3268C43.8113 29.8386 43.9822 30.3259 44.3523 30.7155L45.8023 29.338C45.8012 29.3369 45.8029 29.3385 45.8057 29.343C45.8086 29.3475 45.8109 29.3523 45.8125 29.3565C45.8141 29.3607 45.8139 29.3616 45.8133 29.3578C45.8126 29.3539 45.8113 29.3439 45.8113 29.3268H43.8113ZM44.3702 30.7339C44.7566 31.1203 45.2499 31.3068 45.7773 31.3068V29.3068C45.7629 29.3068 45.7559 29.3056 45.7549 29.3054C45.7541 29.3052 45.7575 29.3058 45.7637 29.3083C45.7699 29.3108 45.7759 29.314 45.7807 29.3172C45.7855 29.3204 45.7866 29.3219 45.7844 29.3196L44.3702 30.7339Z" fill="white"/>
</svg>
