<svg width="24" height="24" viewBox="0 0 24 24" fill="none" xmlns="http://www.w3.org/2000/svg">
<path d="M8.25 1.5H1.5V8.25H3V3H8.25V1.5Z" fill="black"/>
<path d="M1.5 15.75V22.5H8.25V21H3V15.75H1.5Z" fill="black"/>
<path d="M22.5 8.25V1.5H15.75V3H21V8.25H22.5Z" fill="black"/>
<path d="M15.75 22.5H22.5V15.75H21V21H15.75V22.5Z" fill="black"/>
<path d="M19.1175 7.59755L12.3675 3.84755C12.2535 3.78172 12.1241 3.74707 11.9925 3.74707C11.8608 3.74707 11.7315 3.78172 11.6175 3.84755L4.86747 7.59755C4.75442 7.66458 4.66096 7.76013 4.59646 7.87465C4.53196 7.98917 4.49869 8.11863 4.49997 8.25005V15.7501C4.5002 15.8829 4.53574 16.0134 4.60295 16.128C4.67016 16.2427 4.76663 16.3374 4.88248 16.4026L11.6325 20.1526C11.7465 20.2184 11.8758 20.253 12.0075 20.253C12.1391 20.253 12.2685 20.2184 12.3825 20.1526L19.1325 16.4026C19.2455 16.3355 19.339 16.24 19.4035 16.1255C19.468 16.0109 19.5013 15.8815 19.5 15.7501V8.25005C19.4997 8.11715 19.4642 7.9867 19.397 7.87205C19.3298 7.7574 19.2333 7.66267 19.1175 7.59755ZM12 5.35505L17.205 8.25005L12 11.1451L6.79498 8.25005L12 5.35505ZM5.99998 9.52505L11.25 12.4426V18.2251L5.99998 15.3076V9.52505ZM12.75 18.2251V12.4426L18 9.52505V15.3076L12.75 18.2251Z" fill="black"/>
</svg>
