<svg width="16" height="14" viewBox="0 0 16 14" fill="none" xmlns="http://www.w3.org/2000/svg">
<path d="M8.00062 2.26L9.38062 5.05L9.61062 5.55L10.1106 5.625L13.1906 6.07L11.0006 8.22L10.6256 8.585L10.7156 9.085L11.2406 12.15L8.48562 10.705L8.00062 10.5L7.53562 10.745L4.78062 12.17L5.28062 9.105L5.37062 8.605L5.00062 8.22L2.79062 6.045L5.87062 5.6L6.37062 5.525L6.60062 5.025L8.00062 2.26ZM8.00062 0L5.72562 4.61L0.640625 5.345L4.32062 8.935L3.45062 14L8.00062 11.61L12.5506 14L11.6806 8.935L15.3606 5.35L10.2756 4.61L8.00062 0Z" fill="#F4B556"/>
</svg>
