<svg width="56" height="56" viewBox="0 0 56 56" fill="none" xmlns="http://www.w3.org/2000/svg">
<rect width="56" height="56" rx="28" fill="#922F27"/>
<path d="M21.25 36.9999C21.0511 36.9999 20.8603 36.9209 20.7197 36.7803C20.579 36.6396 20.5 36.4488 20.5 36.2499V19.7499C20.5 19.6196 20.5339 19.4915 20.5985 19.3783C20.6631 19.2651 20.7561 19.1706 20.8682 19.1043C20.9804 19.038 21.108 19.002 21.2383 19C21.3686 18.9979 21.4972 19.0299 21.6114 19.0927L36.6114 27.3427C36.7291 27.4074 36.8273 27.5026 36.8956 27.6182C36.964 27.7338 37 27.8656 37 27.9999C37 28.1342 36.964 28.266 36.8956 28.3816C36.8273 28.4972 36.7291 28.5924 36.6114 28.6571L21.6114 36.9071C21.5007 36.968 21.3764 36.9999 21.25 36.9999Z" fill="white"/>
</svg>
