<svg width="41" height="14" viewBox="0 0 41 14" fill="none" xmlns="http://www.w3.org/2000/svg">
<g clip-path="url(#clip0_2422_3647)">
<path d="M18.1022 13.24H14.8843L16.897 0.794922H20.1147L18.1022 13.24Z" fill="#00579F"/>
<path d="M29.7675 1.09918C29.1328 0.847364 28.1261 0.569336 26.8813 0.569336C23.7035 0.569336 21.4657 2.2639 21.452 4.68661C21.4256 6.47408 23.0542 7.46688 24.2722 8.06288C25.5172 8.6719 25.9404 9.06941 25.9404 9.61227C25.9277 10.446 24.9344 10.8304 24.0079 10.8304C22.7232 10.8304 22.0348 10.6322 20.9887 10.1684L20.565 9.96948L20.1147 12.7632C20.8694 13.107 22.2599 13.4121 23.7035 13.4255C27.0799 13.4255 29.2781 11.7572 29.3042 9.17535C29.317 7.75864 28.4571 6.6731 26.6031 5.78605C25.4776 5.21662 24.7883 4.83266 24.7883 4.25004C24.8015 3.72038 25.3713 3.17787 26.6418 3.17787C27.6879 3.1513 28.4565 3.40276 29.0388 3.65439L29.3299 3.78654L29.7675 1.09918Z" fill="#00579F"/>
<path fill-rule="evenodd" clip-rule="evenodd" d="M35.5271 0.794922H38.0161L40.6122 13.2399H37.6327C37.6327 13.2399 37.3411 11.81 37.2487 11.373H33.1172C32.9977 11.7038 32.4419 13.2399 32.4419 13.2399H29.0654L33.8452 1.8275C34.1764 1.01981 34.7595 0.794922 35.5271 0.794922ZM35.3288 5.34912C35.3288 5.34912 34.309 8.1162 34.044 8.83115H36.7187C36.5864 8.20893 35.977 5.22999 35.977 5.22999L35.7521 4.15765C35.6574 4.43379 35.5205 4.81344 35.4281 5.0695C35.3655 5.24307 35.3234 5.35986 35.3288 5.34912Z" fill="#00579F"/>
<path d="M12.1967 0.794922L9.04529 9.28128L8.70092 7.56014C8.11829 5.57418 6.29105 3.41648 4.25195 2.34361L7.13851 13.2268H10.5414L15.5994 0.794922H12.1967Z" fill="#00579F"/>
<path d="M6.11893 0.794922H0.941638L0.888672 1.04638C4.92728 2.07913 7.60198 4.56853 8.70089 7.56067L7.57541 1.84105C7.39011 1.04621 6.82069 0.821141 6.11893 0.794922Z" fill="#FAA61A"/>
</g>
<defs>
<clipPath id="clip0_2422_3647">
<rect width="40" height="14" fill="white" transform="translate(0.888672)"/>
</clipPath>
</defs>
</svg>
