<svg width="43" height="12" viewBox="0 0 43 12" fill="none" xmlns="http://www.w3.org/2000/svg">
<g clip-path="url(#clip0_2422_3644)">
<path fill-rule="evenodd" clip-rule="evenodd" d="M10.777 1.91788L9.25464 7.19151H8.99419L7.47184 1.91788C7.21139 1.02549 6.39407 0.411133 5.46001 0.411133H1.80908V11.8911H5.4645V5.10627H5.72497L7.81763 11.8911H10.4312L12.5194 5.10627H12.7799V11.8911H16.4352V0.411133H12.7843C11.8547 0.411133 11.0374 1.02549 10.777 1.91788ZM31.0164 11.8911H34.6944V8.49646H38.3949C40.3303 8.49646 41.9785 7.40227 42.616 5.86413H31.0164V11.8911ZM21.9273 7.196L24.5005 1.62192C24.8419 0.886476 25.5827 0.411133 26.4 0.411133H29.5031V11.8911H25.8477V5.11076H25.5872L23.014 10.6804C22.6727 11.4158 21.9319 11.8911 21.1145 11.8911H18.0115V0.411133H21.667V7.196H21.9273Z" fill="#006848"/>
<path d="M38.7588 0.411133C39.8141 0.411133 40.7706 0.814726 41.4936 1.47842C42.302 2.21385 42.8094 3.27218 42.8094 4.45156C42.8094 4.69371 42.7825 4.93138 42.742 5.16457H35.9521C33.6529 5.16457 31.7039 3.65782 31.0483 1.57707C31.0393 1.55465 31.0348 1.52774 31.0258 1.50084C31.0079 1.43806 30.9944 1.37079 30.9764 1.30801C30.9091 1.01652 30.8642 0.720553 30.8462 0.411133H38.7588Z" fill="url(#paint0_linear_2422_3644)"/>
</g>
<defs>
<linearGradient id="paint0_linear_2422_3644" x1="42.8094" y1="12.9154" x2="30.9194" y2="12.9154" gradientUnits="userSpaceOnUse">
<stop stop-color="#1E5CD8"/>
<stop offset="1" stop-color="#02AFFF"/>
</linearGradient>
<clipPath id="clip0_2422_3644">
<rect width="42" height="12" fill="white" transform="translate(0.888672)"/>
</clipPath>
</defs>
</svg>
