<svg width="64" height="64" viewBox="0 0 64 64" fill="none" xmlns="http://www.w3.org/2000/svg">
<path d="M52.0012 56.7213C48.5392 56.7213 45.6792 54.0893 45.3192 50.7213H20.6832C20.3232 54.0893 17.4632 56.7213 14.0012 56.7213C10.5392 56.7213 7.67925 54.0893 7.31925 50.7213H6.00125C3.39925 50.7213 1.28125 48.6033 1.28125 46.0013V32.0013C1.28125 31.8653 1.31925 31.7393 1.38325 31.6313L9.46125 17.6412C9.58925 17.4192 9.82725 17.2813 10.0852 17.2813H25.2832V8.00125C25.2832 7.60325 25.6052 7.28125 26.0032 7.28125H62.0032C62.4012 7.28125 62.7232 7.60325 62.7232 8.00125V50.0013C62.7232 50.3993 62.4012 50.7213 62.0032 50.7213H58.6852C58.3232 54.0893 55.4632 56.7213 52.0012 56.7213ZM52.0012 44.7213C49.0892 44.7213 46.7212 47.0893 46.7212 50.0013C46.7212 52.9133 49.0892 55.2813 52.0012 55.2813C54.9132 55.2813 57.2812 52.9133 57.2812 50.0013C57.2812 47.0893 54.9132 44.7213 52.0012 44.7213ZM14.0012 44.7213C11.0892 44.7213 8.72125 47.0893 8.72125 50.0013C8.72125 52.9133 11.0892 55.2813 14.0012 55.2813C16.9132 55.2813 19.2812 52.9133 19.2812 50.0013C19.2812 47.0893 16.9132 44.7213 14.0012 44.7213ZM58.6832 49.2813H61.2812V8.72125H26.7212V49.2813H45.3192C45.6792 45.9133 48.5372 43.2813 52.0012 43.2813C55.4652 43.2813 58.3232 45.9133 58.6832 49.2813ZM20.6832 49.2813H25.2812V32.7213H2.72125V46.0013C2.72125 47.8093 4.19325 49.2813 6.00125 49.2813H7.31925C7.67925 45.9133 10.5392 43.2813 14.0012 43.2813C17.4632 43.2813 20.3232 45.9133 20.6832 49.2813ZM20.7212 31.2813H25.2812V18.7212H20.7212V31.2813ZM3.24925 31.2813H19.2812V18.7212H10.5012L3.24925 31.2813ZM22.0012 36.7213H18.0012V35.2813H22.0012V36.7213ZM58.0012 32.7213H42.0012V31.2813H58.0012V32.7213ZM58.0012 26.7213H38.0012V25.2813H58.0012V26.7213ZM58.0012 20.7213H34.0012V19.2813H58.0012V20.7213ZM58.0012 14.7213H30.0012V13.2812H58.0012V14.7213Z" fill="#242424"/>
</svg>
