<svg width="64" height="64" viewBox="0 0 64 64" fill="none" xmlns="http://www.w3.org/2000/svg">
<path d="M28.4187 62.7208C28.2267 62.7208 28.0448 62.6447 27.9107 62.5107L1.49275 36.0848C1.21075 35.8027 1.21075 35.3468 1.49275 35.0648L35.0728 1.49275C35.3548 1.21075 35.8107 1.21075 36.0928 1.49275L48.7968 14.1927L55.4928 7.49275C55.7748 7.21075 56.2308 7.21275 56.5128 7.49275C56.7948 7.77475 56.7948 8.23075 56.5128 8.51075L49.8168 15.2127L62.5128 27.9047C62.6468 28.0387 62.7228 28.2227 62.7228 28.4128C62.7228 28.6028 62.6468 28.7867 62.5128 28.9207L28.9268 62.5107C28.7927 62.6447 28.6107 62.7208 28.4187 62.7208ZM3.01875 35.5748L28.4187 60.9827L60.9827 28.4107L48.7968 16.2288L46.8168 18.2107C48.1388 20.0267 47.9808 22.5928 46.3448 24.2288C44.5888 25.9827 41.5308 25.9867 39.7708 24.2288C37.9608 22.4167 37.9608 19.4688 39.7708 17.6567C41.3588 16.0707 44.0308 15.8868 45.8027 17.1908L47.7788 15.2107L35.5828 3.01875L3.01875 35.5748ZM43.0568 17.7367C42.2008 17.7367 41.3947 18.0707 40.7887 18.6768C40.1828 19.2808 39.8488 20.0868 39.8488 20.9447C39.8488 21.8008 40.1828 22.6067 40.7887 23.2127C42.0008 24.4247 44.1148 24.4207 45.3248 23.2127C45.9308 22.6067 46.2648 21.8008 46.2648 20.9447C46.2648 20.3347 46.0968 19.7527 45.7828 19.2487L43.5748 21.4587C43.2928 21.7407 42.8368 21.7388 42.5548 21.4587C42.2728 21.1768 42.2728 20.7208 42.5548 20.4408L44.7648 18.2288C44.2588 17.9067 43.6707 17.7367 43.0568 17.7367Z" fill="#242424"/>
<g clip-path="url(#clip0_9082:30431)">
<path d="M35.8035 31.1274L35.8035 31.1273L31.826 27.1498L31.7907 27.1145L31.7553 27.1498L26.9293 31.9758L25.6388 30.6854L25.6035 30.65L25.5681 30.6854L24.6842 31.5693L24.6489 31.6046L24.6842 31.64L25.9747 32.9304L24.7196 34.1856L23.4291 32.8951L23.3938 32.8597L23.3584 32.8951L22.4745 33.779L22.4392 33.8143L22.4745 33.8497L23.765 35.1402L21.1487 37.7564L21.1134 37.7918L21.1487 37.8272L22.0326 38.711L22.068 38.7464L22.1033 38.711L24.7196 36.0947L28.6617 40.0369L28.6971 40.0722L28.7324 40.0369L29.6163 39.153L29.6517 39.1176L29.6163 39.0823L25.6742 35.1402L26.9293 33.885L29.9875 36.9433L29.9876 36.9433C30.7008 37.6549 31.6671 38.0545 32.6746 38.0545C33.682 38.0545 34.6483 37.6549 35.3615 36.9433L35.3616 36.9433L35.8035 36.5013L35.8035 36.5013C36.5151 35.7881 36.9148 34.8218 36.9148 33.8143C36.9148 32.8069 36.5151 31.8405 35.8035 31.1274ZM34.407 35.9886C33.9472 36.4474 33.3241 36.7051 32.6746 36.7051C32.025 36.7051 31.4019 36.4474 30.9421 35.9886L27.8839 32.9304L31.7907 29.0237L34.8489 32.0819C35.3077 32.5417 35.5653 33.1648 35.5653 33.8143C35.5653 34.4639 35.3077 35.0869 34.8489 35.5468L34.407 35.9886Z" fill="#242424" stroke="#242424" stroke-width="0.1"/>
</g>
<defs>
<clipPath id="clip0_9082:30431">
<rect width="20" height="20" fill="white" transform="translate(29.1406 21) rotate(45)"/>
</clipPath>
</defs>
</svg>
