<svg width="24" height="24" viewBox="0 0 24 24" fill="none" xmlns="http://www.w3.org/2000/svg">
<path d="M21.0199 16.1655C20.9965 16.1129 20.9749 16.069 20.9547 16.0339C20.6214 15.4031 19.9851 14.6285 19.0455 13.7104L19.0254 13.6895L19.0155 13.6787L19.0055 13.6686H18.9955C18.569 13.2409 18.2991 12.9536 18.186 12.8061C17.9794 12.5262 17.9327 12.2423 18.0461 11.955C18.1264 11.7378 18.4261 11.2787 18.9459 10.5776C19.219 10.2064 19.4356 9.90864 19.5956 9.68373C20.7485 8.07187 21.2481 7.04192 21.0949 6.59304L21.0348 6.48791C20.9947 6.42463 20.8913 6.36687 20.7248 6.31434C20.5583 6.26181 20.345 6.2535 20.0853 6.28822L17.2065 6.30971C17.1398 6.30265 17.0732 6.30449 17.0063 6.31464C16.9397 6.32538 16.8965 6.33583 16.8763 6.34628C16.8561 6.35702 16.8398 6.36563 16.8263 6.3724L16.7863 6.40403C16.753 6.42493 16.7164 6.46179 16.6764 6.51468C16.6364 6.56721 16.6028 6.62835 16.5765 6.69876C16.2633 7.54677 15.9069 8.33519 15.5069 9.06437C15.2604 9.49882 15.0336 9.87582 14.8274 10.1945C14.6208 10.5137 14.4476 10.7485 14.3076 10.8987C14.1677 11.0493 14.0409 11.1706 13.9278 11.2613C13.8145 11.3528 13.7277 11.391 13.6681 11.3772C13.6079 11.3633 13.5513 11.3491 13.498 11.3348C13.4049 11.2717 13.3295 11.186 13.2731 11.0773C13.2164 10.9688 13.1781 10.8321 13.158 10.6674C13.1381 10.5027 13.1262 10.3607 13.1232 10.2415C13.1197 10.1223 13.1215 9.95423 13.1282 9.73698C13.1349 9.51972 13.1381 9.37286 13.1381 9.29546C13.1381 9.02935 13.1431 8.7402 13.1534 8.42803C13.1633 8.11615 13.1718 7.8691 13.1782 7.68692C13.1849 7.50504 13.1881 7.31206 13.1881 7.10864C13.1881 6.90586 13.1764 6.74607 13.1531 6.63025C13.1297 6.51474 13.0947 6.40285 13.0482 6.2938C13.0015 6.18529 12.9331 6.10112 12.8431 6.04182C12.7531 5.98222 12.6415 5.93491 12.5083 5.89983C12.1548 5.81566 11.7052 5.77049 11.1588 5.76312C9.91927 5.74959 9.12283 5.83376 8.76962 6.0157C8.6297 6.09311 8.50287 6.19788 8.38982 6.33126C8.26977 6.48554 8.25312 6.57 8.33987 6.58324C8.73982 6.64652 9.02292 6.79741 9.18948 7.0355L9.24965 7.16153C9.2961 7.25306 9.34283 7.41404 9.38957 7.64513C9.4363 7.87652 9.4661 8.13218 9.47954 8.41266C9.51284 8.92428 9.51284 9.36212 9.47954 9.72683C9.44624 10.0916 9.41468 10.3752 9.3846 10.5779C9.35452 10.7814 9.30953 10.9457 9.24959 11.072C9.18943 11.1986 9.14969 11.2757 9.12954 11.3037C9.10939 11.3316 9.09303 11.3491 9.07959 11.3562C8.99279 11.391 8.90316 11.4088 8.80963 11.4088C8.71617 11.4088 8.60312 11.3596 8.46957 11.2613C8.33637 11.1636 8.19787 11.0284 8.05473 10.8566C7.91126 10.6851 7.75 10.4449 7.56973 10.1364C7.3898 9.82827 7.20309 9.4638 7.01 9.04318L6.85016 8.73807C6.75026 8.542 6.61356 8.25624 6.44028 7.88138C6.26707 7.50653 6.11366 7.14396 5.98046 6.79308C5.92701 6.64622 5.8472 6.53403 5.74058 6.45663L5.69063 6.42499C5.65733 6.39703 5.60388 6.36723 5.53056 6.33589C5.45696 6.30425 5.38071 6.28152 5.30062 6.26739L2.56169 6.28828C2.2818 6.28828 2.09193 6.35524 1.99198 6.48832L1.95196 6.55131C1.93181 6.58663 1.92188 6.64284 1.92188 6.71965C1.92188 6.79712 1.94202 6.89144 1.98204 7.00327C2.38198 7.99173 2.81675 8.94482 3.28651 9.86264C3.75661 10.7811 4.1644 11.5206 4.51123 12.081C4.85773 12.6421 5.21094 13.1709 5.57086 13.6687C5.93079 14.1664 6.16891 14.4851 6.28547 14.6251C6.40202 14.7655 6.49351 14.8707 6.56039 14.9407L6.8102 15.1932C6.97004 15.3613 7.20518 15.5629 7.51487 15.7976C7.82485 16.0327 8.16784 16.2638 8.54442 16.4912C8.92071 16.7191 9.35926 16.9044 9.85882 17.0485C10.3587 17.1923 10.8452 17.2501 11.3181 17.2218H12.4677C12.7011 17.201 12.8776 17.1241 12.9974 16.9905L13.0374 16.9379C13.064 16.8962 13.0891 16.831 13.1125 16.7438C13.1356 16.6562 13.1475 16.5597 13.1475 16.4546C13.1405 16.1532 13.1624 15.8813 13.2124 15.6398C13.2624 15.398 13.3191 15.2158 13.3825 15.0928C13.4458 14.9706 13.5172 14.867 13.5975 14.7828C13.6776 14.6986 13.7339 14.6482 13.7676 14.6304C13.8009 14.6132 13.8277 14.6009 13.8476 14.5936C14.0074 14.5377 14.1955 14.5921 14.4123 14.7564C14.6288 14.9214 14.8321 15.1242 15.0221 15.3663C15.2119 15.6081 15.4401 15.8794 15.7069 16.1812C15.9733 16.4826 16.2065 16.7066 16.4066 16.8538L16.6067 16.9804C16.7399 17.0642 16.9132 17.1414 17.1264 17.2117C17.3397 17.2814 17.5264 17.2993 17.6862 17.2643L20.2452 17.2218C20.4985 17.2218 20.6951 17.1782 20.835 17.0904C20.9749 17.0033 21.0582 16.9062 21.0848 16.8012C21.1114 16.6961 21.1132 16.5775 21.0898 16.4438C21.0664 16.3108 21.0429 16.2181 21.0199 16.1655Z" fill="#242424"/>
</svg>
