<svg width="24" height="24" viewBox="0 0 24 24" fill="none" xmlns="http://www.w3.org/2000/svg">
<path d="M20.8817 7.47764C20.6996 6.05906 19.8692 5.16927 18.3952 5.03783C16.7075 4.88738 13.054 4.80078 11.3594 4.80078C7.89318 4.80078 6.34417 4.88433 4.705 5.05176C3.14291 5.21104 2.45909 5.89605 2.19031 7.31021C2.00206 8.30121 1.92188 9.22939 1.92188 11.423C1.92188 13.3934 2.01617 14.6327 2.16209 15.6753C2.36273 17.1071 3.35869 17.9117 4.81822 18.0316C6.51625 18.1712 9.9178 18.2408 11.5997 18.2408C13.2247 18.2408 16.882 18.1572 18.5081 17.9759C19.9635 17.8135 20.6556 17.0463 20.8817 15.6335C20.8817 15.6335 21.1219 14.0859 21.1219 11.409C21.1219 9.88485 21.009 8.46729 20.8817 7.47764ZM9.48039 14.1837V8.73694L14.7359 11.4325L9.48039 14.1837Z" fill="#242424"/>
</svg>
