<svg width="40" height="15" viewBox="0 0 40 15" fill="none" xmlns="http://www.w3.org/2000/svg">
<path d="M17.214 13.7419H13.9961L16.0088 1.29688H19.2265L17.214 13.7419Z" fill="#00579F"/>
<path d="M28.8794 1.60015C28.2447 1.34834 27.238 1.07031 25.9932 1.07031C22.8154 1.07031 20.5776 2.76487 20.5639 5.18758C20.5375 6.97505 22.1661 7.96785 23.3841 8.56385C24.6291 9.17287 25.0523 9.57038 25.0523 10.1132C25.0396 10.9469 24.0463 11.3313 23.1198 11.3313C21.8351 11.3313 21.1467 11.1331 20.1006 10.6693L19.6769 10.4705L19.2266 13.2641C19.9813 13.6079 21.3718 13.913 22.8154 13.9264C26.1918 13.9264 28.39 12.2581 28.4161 9.67632C28.4289 8.25961 27.569 7.17407 25.715 6.28702C24.5895 5.71759 23.9002 5.33363 23.9002 4.75101C23.9134 4.22135 24.4832 3.67884 25.7537 3.67884C26.7998 3.65227 27.5684 3.90373 28.1507 4.15536L28.4418 4.28751L28.8794 1.60015Z" fill="#00579F"/>
<path fill-rule="evenodd" clip-rule="evenodd" d="M34.6375 1.29688H37.1265L39.7226 13.7418H36.7431C36.7431 13.7418 36.4515 12.3119 36.3591 11.8749H32.2276C32.1081 12.2057 31.5523 13.7418 31.5523 13.7418H28.1758L32.9556 2.32945C33.2868 1.52176 33.8699 1.29688 34.6375 1.29688ZM34.4392 5.85107C34.4392 5.85107 33.4194 8.61815 33.1544 9.3331H35.8291C35.6968 8.71088 35.0874 5.73194 35.0874 5.73194L34.8625 4.6596C34.7678 4.93574 34.6309 5.31539 34.5385 5.57145C34.4759 5.74502 34.4338 5.86181 34.4392 5.85107Z" fill="#00579F"/>
<path d="M11.308 1.29688L8.15662 9.78323L7.81225 8.06209C7.22962 6.07613 5.40238 3.91843 3.36328 2.84556L6.24984 13.7287H9.65269L14.7107 1.29688H11.308Z" fill="#00579F"/>
<path d="M5.23026 1.29688H0.052966L0 1.54833C4.03861 2.58108 6.71331 5.07048 7.81222 8.06262L6.68674 2.343C6.50144 1.54816 5.93202 1.32309 5.23026 1.29688Z" fill="#FAA61A"/>
</svg>
