<svg width="143" height="48" viewBox="0 0 143 48" fill="none" xmlns="http://www.w3.org/2000/svg">
<path d="M13.6906 36.7886C10.4914 37.4659 7.62149 36.9754 5.08094 35.2703C2.54039 33.5886 0.940785 31.1827 0.282124 28.0528C-0.376536 24.8995 0.0939356 22.0499 1.74059 19.5039C3.36372 16.9345 5.78665 15.2995 8.98586 14.6221C10.9148 14.2017 12.7732 14.2951 14.5845 14.8557C16.4193 15.3929 17.9483 16.3506 19.1951 17.682L16.0194 20.555C15.2902 19.7141 14.3728 19.1302 13.2907 18.8031C12.2086 18.4528 11.0559 18.4294 9.83271 18.6864C7.76263 19.1302 6.2336 20.1345 5.22208 21.6995C4.23409 23.2645 3.97533 25.0864 4.39876 27.1418C4.82218 29.1973 5.81017 30.7389 7.33921 31.7667C8.89176 32.7944 10.7031 33.098 12.7732 32.6542C13.9964 32.3973 15.0314 31.9068 15.8783 31.1594C16.7486 30.4119 17.3367 29.501 17.6661 28.4499L21.7356 29.7813C21.1476 31.5097 20.136 33.0046 18.7246 34.2659C17.3132 35.5506 15.643 36.3681 13.6906 36.7886Z" fill="#1E1E1C"/>
<path d="M34.1089 16.0938L34.9087 19.8777L30.1569 20.8821L32.5799 32.3273L28.6514 33.1682L26.2285 21.7229L21.4297 22.7507L20.6299 18.9667L34.1089 16.0938Z" fill="#1E1E1C"/>
<path d="M44.9765 13.3368C47.023 12.8931 48.9284 13.3135 50.6927 14.5748C52.4805 15.8128 53.6096 17.5412 54.0801 19.8069C54.5506 22.0493 54.2448 24.1281 53.1156 25.9967C52.01 27.842 50.4339 28.9865 48.3874 29.4303C46.2703 29.8741 44.4589 29.5004 43.0005 28.2624L44.6706 36.1339L40.7422 36.9748L36.2021 15.6493L40.1306 14.8084L40.507 16.6069C41.3538 14.8785 42.8358 13.7806 44.9765 13.3368ZM43.5886 25.2726C44.553 25.9033 45.6351 26.0668 46.8583 25.8098C48.0816 25.5529 48.999 24.9456 49.6106 23.9879C50.2457 23.0069 50.4339 21.8858 50.1752 20.6244C49.9164 19.3631 49.2813 18.4288 48.3168 17.8215C47.3523 17.1675 46.2703 16.9806 45.047 17.2376C43.8238 17.4945 42.9064 18.1252 42.2948 19.1062C41.6831 20.0639 41.495 21.185 41.7537 22.423C42.0125 23.6843 42.6241 24.6186 43.5886 25.2726Z" fill="#1E1E1C"/>
<path d="M71.017 22.1654C69.7938 24.0341 68.053 25.2253 65.7948 25.6925C63.5365 26.1596 61.4664 25.8092 59.5846 24.5946C57.7027 23.3567 56.55 21.6282 56.056 19.3625C55.5855 17.1202 55.9384 15.0414 57.1616 13.1727C58.3848 11.2808 60.1256 10.0895 62.3839 9.62238C64.6421 9.15523 66.7122 9.52895 68.5941 10.7435C70.476 11.9581 71.6757 13.6866 72.1461 15.9289C72.6166 18.1946 72.2402 20.2735 71.017 22.1654ZM61.7722 21.3012C62.7367 21.9319 63.7953 22.1187 64.9715 21.8618C66.1476 21.6049 67.0415 20.9976 67.6767 20.0399C68.2883 19.0822 68.4765 17.9844 68.2177 16.7698C67.9589 15.5552 67.3473 14.6443 66.3829 14.0136C65.4184 13.383 64.3598 13.1961 63.1837 13.453C62.0075 13.71 61.1136 14.3173 60.4784 15.2749C59.8668 16.2326 59.7022 17.3071 59.9609 18.5217C60.2432 19.7596 60.8313 20.6706 61.7722 21.3012Z" fill="#1E1E1C"/>
<path d="M75.416 5.27883L74.6868 1.86861L83.5082 0L84.2374 3.41022L75.416 5.27883ZM84.2609 5.41898L87.1778 4.78832L90.4006 19.9942L86.5662 20.8117L84.7314 12.1693L79.4151 22.3299L76.4981 22.9606L73.2754 7.75474L77.1097 6.93723L78.9446 15.5796L84.2609 5.41898Z" fill="#1E1E1C"/>
<path d="M72.0294 32V47.5562H68.0304V35.7606H61.8437V47.5562H57.8447V32H72.0294Z" fill="#1E1E1C"/>
<path d="M89.0133 32V47.5562H85.0143V35.854H80.733V41.0394C80.733 45.8511 78.5453 48.0234 74.1699 47.5328V43.7723C74.9932 43.9825 75.6284 43.8423 76.0753 43.3752C76.4988 42.8847 76.734 42.0204 76.734 40.8292V32H89.0133Z" fill="#1E1E1C"/>
<path d="M96.0467 41.4364C96.5877 43.3751 98.0462 44.3561 100.422 44.3561C101.951 44.3561 103.104 43.8423 103.904 42.7912L107.126 44.6598C105.597 46.8788 103.339 47.9766 100.351 47.9766C97.7874 47.9766 95.7173 47.2058 94.1648 45.6408C92.6122 44.0759 91.8359 42.1372 91.8359 39.7547C91.8359 37.4189 92.6122 35.4569 94.1413 33.9153C95.6703 32.3503 97.6463 31.5562 100.046 31.5562C102.327 31.5562 104.209 32.3503 105.668 33.9153C107.15 35.4802 107.903 37.4423 107.903 39.7547C107.903 40.2686 107.856 40.8291 107.738 41.4131L96.0467 41.4364ZM95.9761 38.3299H103.904C103.668 37.2788 103.198 36.4846 102.469 35.9707C101.763 35.4569 100.963 35.1999 100.046 35.1999C98.9636 35.1999 98.0697 35.4802 97.364 36.0408C96.6583 36.5547 96.2113 37.3255 95.9761 38.3299Z" fill="#1E1E1C"/>
<path d="M113.313 30.014V26.5337H122.323V30.014H113.313ZM121.923 31.9994H124.91V47.5556H121.005V38.7264L113.713 47.5556H110.726V31.9994H114.63V40.8286L121.923 31.9994Z" fill="#1E1E1C"/>
<path d="M135.966 48.0001C133.637 48.0001 131.661 47.206 130.085 45.641C128.532 44.076 127.756 42.114 127.756 39.8016C127.756 37.4892 128.532 35.5271 130.085 33.9622C131.661 32.3972 133.613 31.603 135.966 31.603C137.471 31.603 138.859 31.9767 140.106 32.7008C141.353 33.4249 142.293 34.4059 142.929 35.6205L139.471 37.6527C139.165 36.9986 138.694 36.5081 138.036 36.1344C137.424 35.7607 136.718 35.5738 135.919 35.5738C134.719 35.5738 133.731 35.9709 132.931 36.7884C132.155 37.5826 131.755 38.587 131.755 39.8249C131.755 41.0395 132.155 42.0673 132.931 42.8848C133.707 43.6789 134.719 44.076 135.919 44.076C136.718 44.076 137.448 43.8892 138.059 43.5388C138.694 43.1651 139.188 42.6512 139.494 42.0205L142.999 43.9592C142.317 45.1738 141.353 46.1782 140.106 46.9257C138.859 47.6264 137.471 48.0001 135.966 48.0001Z" fill="#1E1E1C"/>
</svg>
