<svg width="143" height="48" viewBox="0 0 143 48" fill="none" xmlns="http://www.w3.org/2000/svg">
<g clip-path="url(#clip0_9057:15161)">
<path fill-rule="evenodd" clip-rule="evenodd" d="M136.412 15.0931L139.785 15.1362C140.079 15.1399 140.323 14.9067 140.326 14.6178L140.367 11.2274C140.37 10.9386 140.132 10.6992 139.838 10.6955L136.465 10.6524C136.17 10.6486 135.927 10.8819 135.923 11.1707L135.883 14.5611C135.879 14.85 136.117 15.0893 136.412 15.0931Z" fill="#858585"/>
<path fill-rule="evenodd" clip-rule="evenodd" d="M141.556 47.999H134.701C134.124 47.999 133.65 47.5131 133.649 46.9191L133.637 40.111C133.636 39.5171 134.107 39.0312 134.685 39.0312H141.54C142.117 39.0312 142.591 39.5171 142.592 40.111L142.604 46.9191C142.606 47.5131 142.134 47.999 141.556 47.999Z" fill="#922F27"/>
<path fill-rule="evenodd" clip-rule="evenodd" d="M25.957 13.1671L25.957 19.5019L76.2758 6.5662L126.944 19.317L126.954 13.2121L75.906 0L25.957 13.1671Z" fill="#922F27"/>
<path d="M29.6234 27.0934L29.636 19.1711L40.6816 19.1887L40.6609 32.2682L42.3541 32.2709L42.342 39.8825L38.8482 39.877L38.8548 35.7139L30.9535 35.7013L30.9469 39.8644L27.4531 39.8589L27.4652 32.2472C27.94 32.248 28.3344 32.1036 28.6484 31.8194C28.9624 31.5351 29.2006 31.0125 29.3676 30.2464C29.5345 29.4855 29.6213 28.4293 29.6234 27.0934ZM36.8984 32.2622L36.9136 22.6623L33.1242 22.6563L33.117 27.1922C33.113 29.6931 32.77 31.3806 32.0833 32.2546L36.8984 32.2622ZM50.6478 36.1675C49.3265 36.1654 48.1131 35.8425 46.9988 35.2038C45.889 34.56 45.0036 33.5851 44.3428 32.2792C43.6774 30.9733 43.3486 29.3624 43.3516 27.4518C43.3539 26.0071 43.553 24.7285 43.9444 23.6262C44.3403 22.5239 44.8748 21.6134 45.5568 20.8948C46.2387 20.1761 47.0145 19.644 47.884 19.2933C48.758 18.9426 49.6855 18.768 50.6754 18.7695C51.6698 18.7711 52.6012 18.9487 53.4741 19.3022C54.3469 19.6556 55.121 20.1902 55.8007 20.911C56.4804 21.637 57.0119 22.5492 57.3954 23.6527C57.7834 24.7562 57.9739 26.0303 57.9716 27.475C57.9693 28.9196 57.7747 30.1879 57.3833 31.2902C56.9963 32.3925 56.4619 33.303 55.7844 34.0268C55.1069 34.7455 54.3266 35.2828 53.4436 35.6386C52.5607 35.9945 51.6287 36.1691 50.6478 36.1675H50.6478ZM50.6651 22.4355C49.3707 22.4335 48.474 22.9292 47.9752 23.9277C47.4765 24.9263 47.2238 26.1013 47.2216 27.4579C47.2195 28.8145 47.4684 29.9955 47.964 30.9956C48.4596 31.9958 49.3547 32.4995 50.6492 32.5015C51.9481 32.5036 52.8492 32.0079 53.348 31.0093C53.8468 30.016 54.0995 28.8358 54.1017 27.4688C54.1038 26.1018 53.8549 24.9209 53.3592 23.9259C52.8636 22.9361 51.9641 22.4376 50.6651 22.4355ZM74.5091 24.4928L70.89 35.7647L67.7187 35.7597L64.1353 24.4763L64.0233 24.4762C64.041 24.6522 64.063 24.9163 64.0893 25.2685C64.1201 25.6206 64.1329 26.009 64.1322 26.4336L64.1174 35.754L60.6237 35.7484L60.6499 19.2203L65.783 19.2285L69.2589 30.4806L69.3665 30.4807L72.8781 19.2397L78.0112 19.2479L77.985 35.7759L74.4912 35.7704L74.506 26.45C74.5066 26.0721 74.5206 25.6993 74.5481 25.3213C74.5756 24.9434 74.5984 24.669 74.6121 24.4929L74.5091 24.4928L74.5091 24.4928ZM94.4057 35.802L90.6432 35.796L90.659 25.8543L85.5638 35.788L81.5326 35.7816L81.5588 19.2535L85.3213 19.2595L85.3055 29.2012L90.4007 19.2676L94.432 19.2739L94.4057 35.802V35.802ZM101.72 35.8136L97.9577 35.8076L97.9839 19.2796L101.746 19.2855L101.737 25.5612L106.481 19.293L111.18 19.3005L106.036 25.6923L111.368 35.8289L106.8 35.8217L103.286 28.7326L101.729 30.5942L101.72 35.8136ZM125.187 29.8237C125.142 30.3724 125.015 30.9988 124.808 31.6923C124.601 32.3858 124.25 33.0895 123.766 33.7929C123.285 34.5015 122.617 35.0907 121.765 35.5658C120.913 36.0408 119.874 36.2773 118.651 36.2754C117.374 36.2734 116.304 36.0231 115.436 35.5195C114.568 35.0158 113.884 34.3623 113.397 33.5486C112.905 32.7401 112.557 31.8593 112.353 30.9114C112.148 29.9583 112.047 29.0002 112.048 28.0319C112.051 26.1989 112.291 24.5993 112.772 23.2279C113.254 21.8565 114.008 20.7859 115.035 20.0212C116.058 19.2564 117.353 18.8753 118.92 18.8778C119.816 18.8792 120.721 19.0671 121.638 19.4413C122.556 19.8156 123.352 20.4745 124.036 21.418C124.72 22.3666 125.117 23.6359 125.222 25.2257L121.41 25.2196C121.135 23.438 120.303 22.546 118.915 22.5438C118.184 22.5427 117.593 22.7799 117.144 23.2608C116.695 23.7416 116.376 24.3417 116.196 25.0612C116.011 25.7807 115.921 26.5365 115.919 27.3287C115.918 28.2193 115.97 29.0427 116.072 29.7988C116.179 30.5498 116.442 31.2182 116.875 31.8144C117.304 32.4053 117.949 32.7015 118.813 32.7029C119.387 32.7038 119.866 32.5337 120.252 32.1873C120.642 31.8462 120.925 31.4428 121.105 30.9822C121.285 30.5269 121.375 30.1335 121.376 29.8176L125.187 29.8237H125.187Z" fill="#5B5B5B"/>
<path fill-rule="evenodd" clip-rule="evenodd" d="M44.8777 37.0469L125.046 37.1741L125.044 38.8592L44.875 38.7321L44.8777 37.0469Z" fill="#5B5B5B"/>
<path fill-rule="evenodd" clip-rule="evenodd" d="M108.784 1.69922L120.019 1.71705L120.012 6.21077L108.777 6.19294L108.784 1.69922Z" fill="#922F27"/>
<path d="M27.1953 47.6194V41.727H27.844V42.2864C27.9967 42.0703 28.1697 41.9076 28.363 41.7995C28.5548 41.6914 28.7887 41.6367 29.063 41.6367C29.4225 41.6367 29.7387 41.7298 30.0131 41.9171C30.2874 42.1031 30.4942 42.3671 30.6347 42.7063C30.7739 43.0469 30.8442 43.419 30.8442 43.8252C30.8442 44.2588 30.7672 44.6499 30.6131 44.9987C30.4591 45.3462 30.2347 45.6129 29.9401 45.7989C29.6468 45.9836 29.3374 46.0766 29.013 46.0766C28.7751 46.0766 28.5616 46.026 28.3738 45.9247C28.1846 45.8235 28.0305 45.6963 27.9089 45.5417V47.6194H27.1953V47.6194ZM27.844 43.8826C27.844 44.4284 27.9535 44.8319 28.1711 45.0931C28.39 45.3544 28.6549 45.4857 28.9657 45.4857C29.2819 45.4857 29.5522 45.3503 29.7766 45.0794C30.0022 44.8086 30.1144 44.3901 30.1144 43.8224C30.1144 43.2808 30.0049 42.8759 29.7847 42.6065C29.5644 42.337 29.3022 42.203 28.9968 42.203C28.6941 42.203 28.4265 42.3466 28.194 42.6325C27.9602 42.9197 27.844 43.3355 27.844 43.8826V43.8826ZM34.5755 44.6076L35.3134 44.706C35.1985 45.1396 34.9836 45.4775 34.6701 45.7169C34.3566 45.9562 33.9566 46.0766 33.4687 46.0766C32.8551 46.0766 32.3686 45.8851 32.0091 45.5021C31.6496 45.1205 31.4699 44.583 31.4699 43.8922C31.4699 43.1782 31.651 42.6229 32.0145 42.229C32.3781 41.8337 32.8497 41.6367 33.4295 41.6367C33.9903 41.6367 34.4485 41.8296 34.8039 42.2167C35.1593 42.6038 35.3377 43.1481 35.3377 43.8498C35.3377 43.8922 35.3363 43.9565 35.3336 44.0413H32.1997C32.2267 44.5077 32.3565 44.8661 32.5916 45.1136C32.8254 45.3612 33.1187 45.4857 33.4687 45.4857C33.7295 45.4857 33.9525 45.4159 34.1363 45.2764C34.3214 45.1369 34.4674 44.914 34.5755 44.6076H34.5755ZM32.2402 43.4504H34.5836C34.5525 43.0921 34.462 42.824 34.3147 42.6448C34.089 42.3671 33.7944 42.2276 33.4336 42.2276C33.1065 42.2276 32.8322 42.3384 32.6092 42.56C32.3875 42.7816 32.2645 43.0784 32.2402 43.4504ZM36.2391 41.727H37.3365L38.4487 45.1355L39.6799 41.727H40.6989V45.9863H39.9853V42.5573L38.746 45.9863H38.1082L36.9365 42.3931V45.9863H36.2391V41.727H36.2391ZM41.5219 43.8567C41.5219 43.0702 41.7381 42.4875 42.1719 42.1086C42.5327 41.794 42.9747 41.6367 43.495 41.6367C44.072 41.6367 44.545 41.8282 44.9126 42.2112C45.2788 42.5928 45.4626 43.1222 45.4626 43.7965C45.4626 44.3436 45.3816 44.7731 45.2194 45.0863C45.0572 45.3995 44.8207 45.643 44.5099 45.8167C44.2004 45.9904 43.8612 46.0766 43.495 46.0766C42.9057 46.0766 42.43 45.8865 42.0665 45.5048C41.703 45.1232 41.5219 44.5734 41.5219 43.8567ZM42.2516 43.858C42.2516 44.4024 42.3692 44.81 42.6044 45.0795C42.8408 45.3503 43.1368 45.4857 43.495 45.4857C43.849 45.4857 44.1436 45.3503 44.3802 45.0781C44.6153 44.8059 44.7329 44.3915 44.7329 43.8348C44.7329 43.3096 44.6139 42.9115 44.3774 42.6421C44.1409 42.3712 43.8463 42.2358 43.495 42.2358C43.1368 42.2358 42.8408 42.3699 42.6044 42.6393C42.3692 42.9088 42.2516 43.315 42.2516 43.858H42.2516ZM46.2992 41.727H47.0127V43.4997H48.9912V41.727H49.7048V45.9863H48.9912V44.0988H47.0127V45.9863H46.2992V41.727ZM50.4035 41.727H53.8091V42.3261H52.4631V45.9863H51.7495V42.3261H50.4035V41.727H50.4035ZM57.3026 41.727H60.2379V45.3954H60.692V47.1927H60.1081V45.9863H56.7917V47.1927H56.2079V45.3954H56.5809C57.0836 44.7047 57.3242 43.4819 57.3026 41.727ZM57.8945 42.3261C57.8418 43.7089 57.631 44.732 57.262 45.3954H59.5243V42.3261H57.8945ZM61.2069 43.8567C61.2069 43.0702 61.4231 42.4875 61.8569 42.1086C62.2177 41.794 62.6597 41.6367 63.18 41.6367C63.757 41.6367 64.23 41.8282 64.5976 42.2112C64.9638 42.5928 65.1476 43.1222 65.1476 43.7965C65.1476 44.3436 65.0665 44.7731 64.9044 45.0863C64.7422 45.3995 64.5057 45.643 64.1949 45.8167C63.8854 45.9904 63.5462 46.0766 63.18 46.0766C62.5907 46.0766 62.115 45.8865 61.7515 45.5048C61.388 45.1232 61.2069 44.5734 61.2069 43.8567ZM61.9366 43.858C61.9366 44.4024 62.0542 44.81 62.2894 45.0795C62.5258 45.3503 62.8218 45.4857 63.18 45.4857C63.534 45.4857 63.8286 45.3503 64.0651 45.0781C64.3003 44.8059 64.4179 44.3915 64.4179 43.8348C64.4179 43.3096 64.2989 42.9115 64.0624 42.6421C63.8259 42.3712 63.5313 42.2358 63.18 42.2358C62.8218 42.2358 62.5258 42.3699 62.2894 42.6393C62.0542 42.9088 61.9366 43.315 61.9366 43.858H61.9366ZM68.733 44.427L69.4303 44.5255C69.3533 45.0111 69.1587 45.39 68.8438 45.6649C68.5289 45.9398 68.1411 46.0766 67.6829 46.0766C67.1086 46.0766 66.6464 45.8865 66.2977 45.5062C65.9477 45.126 65.7733 44.5816 65.7733 43.8731C65.7733 43.4135 65.849 43.0127 65.999 42.668C66.149 42.3247 66.3774 42.0662 66.6856 41.8953C66.9923 41.7229 67.3261 41.6367 67.6883 41.6367C68.1437 41.6367 68.5181 41.753 68.8073 41.9869C69.0979 42.2208 69.2844 42.5531 69.3654 42.9826L68.6762 43.0893C68.61 42.8034 68.4938 42.5887 68.3248 42.4437C68.1573 42.3001 67.9545 42.2276 67.7167 42.2276C67.3572 42.2276 67.0653 42.3576 66.8396 42.6174C66.6153 42.8787 66.5031 43.289 66.5031 43.8525C66.5031 44.4243 66.6112 44.8387 66.8275 45.0972C67.045 45.3557 67.3275 45.4857 67.6748 45.4857C67.9559 45.4857 68.1897 45.3995 68.3762 45.2258C68.5641 45.0535 68.683 44.7867 68.733 44.427L68.733 44.427ZM69.6654 41.727H73.0711V42.3261H71.7251V45.9863H71.0115V42.3261H69.6655V41.727H69.6654ZM73.8103 47.6236L73.7292 46.9561C73.886 46.9985 74.0211 47.0203 74.1374 47.0203C74.2968 47.0203 74.4239 46.993 74.5184 46.9397C74.6144 46.8863 74.6928 46.8111 74.7536 46.7154C74.7982 46.6428 74.8712 46.4637 74.9712 46.1764C74.9847 46.1368 75.005 46.0779 75.0347 46L73.4373 41.727H74.1995L75.0779 44.1863C75.1928 44.4968 75.2942 44.8251 75.3847 45.1697C75.4672 44.8456 75.5645 44.5255 75.678 44.2109L76.5753 41.727H77.2875L75.6969 46.0602C75.5253 46.5266 75.3915 46.8466 75.2955 47.0231C75.1685 47.2597 75.0225 47.4334 74.859 47.5442C74.6941 47.655 74.4982 47.7097 74.2711 47.7097C74.1333 47.7097 73.9792 47.681 73.8103 47.6235L73.8103 47.6236ZM77.897 41.727H81.2216V45.9863H80.508V42.3261H78.6106V45.9863H77.897V41.727H77.897ZM85.1583 44.6076L85.8962 44.7061C85.7813 45.1397 85.5664 45.4775 85.2529 45.7169C84.9394 45.9562 84.5394 46.0766 84.0515 46.0766C83.4379 46.0766 82.9514 45.8851 82.5919 45.5021C82.2324 45.1205 82.0527 44.583 82.0527 43.8922C82.0527 43.1783 82.2338 42.6229 82.5973 42.229C82.9609 41.8337 83.4325 41.6367 84.0123 41.6367C84.5731 41.6367 85.0313 41.8296 85.3867 42.2167C85.7421 42.6038 85.9205 43.1481 85.9205 43.8498C85.9205 43.8922 85.9192 43.9565 85.9165 44.0413H82.7825C82.8095 44.5077 82.9393 44.8661 83.1744 45.1137C83.4082 45.3612 83.7015 45.4857 84.0515 45.4857C84.3123 45.4857 84.5353 45.4159 84.7191 45.2764C84.9042 45.1369 85.0502 44.914 85.1583 44.6076H85.1583ZM82.8231 43.4504H85.1664C85.1353 43.0921 85.0448 42.824 84.8975 42.6448C84.6718 42.3672 84.3772 42.2276 84.0164 42.2276C83.6893 42.2276 83.415 42.3384 83.192 42.56C82.9703 42.7816 82.8473 43.0784 82.8231 43.4504ZM86.7976 41.727H87.5112V43.4997H89.4897V41.727H90.2032V45.9863H89.4897V44.0988H87.5112V45.9863H86.7976V41.727ZM93.5196 41.727H94.2332V43.5653C94.4602 43.5653 94.6197 43.5216 94.7116 43.4326C94.8021 43.3451 94.936 43.0893 95.1143 42.664C95.2549 42.3275 95.3684 42.1059 95.4549 41.9992C95.5427 41.8925 95.6427 41.82 95.7562 41.7831C95.8711 41.7461 96.0536 41.727 96.3036 41.727H96.4468V42.322L96.2482 42.3179C96.0603 42.3179 95.94 42.3466 95.8873 42.4027C95.8319 42.4615 95.7468 42.6366 95.6333 42.9279C95.5252 43.207 95.4265 43.3998 95.336 43.5065C95.2468 43.6132 95.1076 43.7103 94.9197 43.7992C95.2265 43.8826 95.5292 44.1712 95.8265 44.6664L96.609 45.9863H95.8252L95.0535 44.6705C94.8981 44.4038 94.7629 44.2287 94.6481 44.1439C94.5319 44.0591 94.394 44.0167 94.2332 44.0167V45.9863H93.5196V41.727V41.727ZM100.002 45.4529C99.7376 45.6813 99.4822 45.8413 99.2376 45.9357C98.993 46.0301 98.7308 46.0766 98.4497 46.0766C97.9875 46.0766 97.6321 45.9631 97.3834 45.7346C97.1347 45.5076 97.0104 45.2162 97.0104 44.862C97.0104 44.6541 97.0577 44.464 97.1509 44.2916C97.2455 44.1193 97.3685 43.9825 97.5199 43.8786C97.6726 43.7746 97.8429 43.6953 98.0334 43.6419C98.174 43.605 98.3862 43.5694 98.6686 43.5339C99.2443 43.4655 99.67 43.382 99.9417 43.2863C99.9444 43.1878 99.9457 43.1249 99.9457 43.0989C99.9457 42.8062 99.8781 42.5997 99.743 42.4793C99.5606 42.3165 99.2889 42.2358 98.9295 42.2358C98.5929 42.2358 98.3443 42.296 98.1848 42.415C98.024 42.534 97.9064 42.7447 97.8294 43.0483L97.132 42.9498C97.1956 42.6475 97.2996 42.4027 97.4455 42.2167C97.5915 42.0307 97.8023 41.8884 98.078 41.7872C98.3523 41.6874 98.6727 41.6367 99.0349 41.6367C99.3943 41.6367 99.6876 41.6791 99.9133 41.7653C100.138 41.8515 100.304 41.9582 100.409 42.0881C100.515 42.2181 100.589 42.3822 100.632 42.5806C100.655 42.7036 100.667 42.9252 100.667 43.2439V44.2014C100.667 44.8702 100.682 45.2928 100.712 45.472C100.74 45.6512 100.8 45.8222 100.886 45.9863H100.14C100.069 45.8345 100.023 45.6567 100.002 45.4529L100.002 45.4529ZM99.9457 43.8526C99.6862 43.9592 99.297 44.0495 98.7781 44.1234C98.4835 44.1658 98.2754 44.2137 98.1537 44.267C98.0321 44.3204 97.9388 44.3983 97.8726 44.4995C97.8064 44.6021 97.7726 44.7156 97.7726 44.8415C97.7726 45.0316 97.8442 45.1916 97.9888 45.3188C98.1335 45.446 98.3443 45.5103 98.6213 45.5103C98.8956 45.5103 99.1403 45.4501 99.3551 45.3284C99.5687 45.208 99.7268 45.0425 99.8268 44.8333C99.9038 44.6705 99.9416 44.4311 99.9416 44.1152L99.9457 43.8526V43.8526ZM104.309 41.727V43.5653C104.539 43.5653 104.701 43.5216 104.795 43.4354C104.888 43.3478 105.022 43.0921 105.195 42.6653C105.357 42.2605 105.504 42.0033 105.637 41.8911C105.766 41.7817 105.972 41.727 106.254 41.727H106.515V42.322L106.322 42.3179C106.131 42.3179 106.011 42.3466 105.958 42.4027C105.903 42.4615 105.818 42.6366 105.704 42.9279C105.599 43.207 105.501 43.3985 105.412 43.5065C105.323 43.6132 105.183 43.7103 104.993 43.7992C105.301 43.8826 105.601 44.1712 105.895 44.6664L106.677 45.9863H105.893L105.131 44.6678C104.976 44.3997 104.839 44.2246 104.724 44.1412C104.608 44.0577 104.47 44.0167 104.309 44.0167V45.9863H103.58V44.0167C103.422 44.0167 103.285 44.0577 103.17 44.1398C103.054 44.2219 102.919 44.3983 102.765 44.6692L101.996 45.9863H101.212L101.992 44.6664C102.288 44.1713 102.59 43.8826 102.899 43.7992C102.688 43.7007 102.539 43.5927 102.455 43.4764C102.37 43.3601 102.245 43.0825 102.076 42.6434C102.017 42.4957 101.955 42.4054 101.889 42.3726C101.82 42.3384 101.719 42.322 101.584 42.322C101.55 42.322 101.48 42.3234 101.374 42.3261V41.727H101.473C101.749 41.727 101.942 41.7434 102.054 41.7776C102.166 41.8105 102.266 41.8816 102.355 41.9896C102.443 42.0977 102.558 42.322 102.699 42.6653C102.87 43.0852 103.003 43.3396 103.095 43.4299C103.186 43.5202 103.349 43.5653 103.58 43.5653V41.727H104.31L104.309 41.727ZM107.748 41.727H110.683V45.3954H111.137V47.1927H110.553V45.9863H107.237V47.1927H106.653V45.3954H107.026C107.529 44.7047 107.769 43.4819 107.748 41.727ZM108.339 42.3261C108.287 43.7089 108.076 44.7321 107.707 45.3954H109.969V42.3261H108.339ZM111.652 43.8567C111.652 43.0702 111.868 42.4875 112.302 42.1086C112.663 41.794 113.105 41.6367 113.625 41.6367C114.202 41.6367 114.675 41.8282 115.043 42.2112C115.409 42.5928 115.593 43.1222 115.593 43.7965C115.593 44.3436 115.512 44.7731 115.349 45.0863C115.187 45.3995 114.951 45.643 114.64 45.8167C114.33 45.9904 113.991 46.0766 113.625 46.0766C113.036 46.0766 112.56 45.8865 112.196 45.5049C111.833 45.1232 111.652 44.5734 111.652 43.8567ZM112.382 43.858C112.382 44.4024 112.499 44.81 112.734 45.0795C112.971 45.3503 113.267 45.4857 113.625 45.4857C113.979 45.4857 114.274 45.3503 114.51 45.0781C114.745 44.8059 114.863 44.3915 114.863 43.8348C114.863 43.3096 114.744 42.9115 114.507 42.6421C114.271 42.3712 113.976 42.2358 113.625 42.2358C113.267 42.2358 112.971 42.3699 112.734 42.6393C112.499 42.9088 112.382 43.315 112.382 43.858H112.382ZM116.453 41.727H117.551L118.663 45.1355L119.894 41.727H120.913V45.9863H120.2V42.5573L118.96 45.9863H118.323L117.151 42.3931V45.9863H116.453V41.727H116.453ZM122.062 47.6236L121.981 46.9561C122.138 46.9985 122.273 47.0203 122.389 47.0203C122.548 47.0203 122.675 46.993 122.77 46.9397C122.866 46.8863 122.944 46.8111 123.005 46.7154C123.05 46.6428 123.123 46.4637 123.223 46.1764C123.236 46.1368 123.257 46.0779 123.286 46L121.689 41.727H122.451L123.33 44.1863C123.444 44.4968 123.546 44.8251 123.636 45.1697C123.719 44.8456 123.816 44.5255 123.93 44.2109L124.827 41.727H125.539L123.949 46.0602C123.777 46.5266 123.643 46.8466 123.547 47.0231C123.42 47.2597 123.274 47.4334 123.111 47.5442C122.946 47.655 122.75 47.7097 122.523 47.7097C122.385 47.7097 122.231 47.681 122.062 47.6235V47.6236Z" fill="#5B5B5B"/>
<path fill-rule="evenodd" clip-rule="evenodd" d="M16.498 43.5587L13.1247 43.5157C12.8304 43.5119 12.5868 43.7451 12.5834 44.034L12.543 47.4244C12.5396 47.7132 12.7775 47.9526 13.0718 47.9564L16.4451 47.9994C16.7394 48.0032 16.983 47.77 16.9864 47.4811L17.0268 44.0907C17.0302 43.8019 16.7923 43.5625 16.498 43.5587Z" fill="#858585"/>
<path fill-rule="evenodd" clip-rule="evenodd" d="M11.3567 10.6523H18.2116C18.7892 10.6523 19.2626 11.1382 19.2637 11.7322L19.2763 18.5403C19.2774 19.1342 18.8058 19.6201 18.2282 19.6201H11.3733C10.7957 19.6201 10.3223 19.1342 10.3212 18.5403L10.3086 11.7322C10.3075 11.1382 10.7791 10.6523 11.3567 10.6523Z" fill="#922F27"/>
<path fill-rule="evenodd" clip-rule="evenodd" d="M1.08238 25.9392L7.87571 25.9336C8.4684 25.9331 8.9546 26.4096 8.95625 26.9925L8.97549 33.835C8.97714 34.4179 8.4936 34.8952 7.90093 34.8957L1.1076 34.9013C0.514912 34.9018 0.028709 34.4253 0.0270587 33.8423L0.00781671 26.9999C0.00616639 26.4169 0.48971 25.9396 1.08238 25.9392Z" fill="#5B5B5B"/>
</g>
<defs>
<clipPath id="clip0_9057:15161">
<rect width="143" height="48" fill="white"/>
</clipPath>
</defs>
</svg>
