<svg width="21" height="21" viewBox="0 0 21 21" fill="none" xmlns="http://www.w3.org/2000/svg">
<path d="M20.7492 19.6886L15.0851 14.0246C16.4462 12.3906 17.1249 10.2948 16.98 8.17314C16.8352 6.05151 15.878 4.06738 14.3075 2.63353C12.737 1.19967 10.6742 0.426479 8.54821 0.474791C6.42218 0.523103 4.39663 1.3892 2.89292 2.89292C1.3892 4.39663 0.523103 6.42218 0.474791 8.54821C0.426479 10.6742 1.19967 12.737 2.63353 14.3075C4.06738 15.878 6.05151 16.8352 8.17314 16.98C10.2948 17.1249 12.3906 16.4462 14.0246 15.0851L19.6886 20.7492L20.7492 19.6886ZM1.9992 8.7492C1.9992 7.41418 2.39508 6.10913 3.13678 4.9991C3.87848 3.88907 4.93269 3.02391 6.16609 2.51301C7.39949 2.00212 8.75669 1.86845 10.0661 2.1289C11.3754 2.38935 12.5782 3.03223 13.5222 3.97623C14.4662 4.92023 15.1091 6.12297 15.3695 7.43234C15.63 8.74171 15.4963 10.0989 14.9854 11.3323C14.4745 12.5657 13.6093 13.6199 12.4993 14.3616C11.3893 15.1033 10.0842 15.4992 8.7492 15.4992C6.9596 15.4972 5.24386 14.7854 3.97842 13.52C2.71298 12.2545 2.00119 10.5388 1.9992 8.7492Z" fill="#242424"/>
</svg>
