<svg width="35" height="43" viewBox="0 0 35 43" fill="none" xmlns="http://www.w3.org/2000/svg">
<g clip-path="url(#clip0_3118_82140)">
<path d="M4.0799 27.7216L17.5 43L30.9257 27.7153C30.9968 27.634 31.4741 27.0283 31.4741 27.0283L31.4764 27.0244C33.7679 24.1104 35.0057 20.5513 35 16.8929C35 12.4126 33.1562 8.11583 29.8744 4.9478C26.5925 1.77978 22.1413 0 17.5 0C12.8587 0 8.40753 1.77978 5.12564 4.9478C1.84376 8.11583 1.74096e-05 12.4126 1.74096e-05 16.8929C-0.00535604 20.5528 1.23329 24.1133 3.52595 27.0283C3.52595 27.0283 4.00369 27.6339 4.0799 27.7216Z" fill="#FFE04D"/>
<path d="M19.3391 25.5545C16.6903 26.1149 14.3142 25.7091 12.2108 24.2985C10.1074 22.9072 8.78296 20.9168 8.23763 18.3274C7.69229 15.7187 8.08182 13.3612 9.44516 11.2549C10.789 9.12923 12.7951 7.77656 15.4439 7.21616C17.0409 6.86833 18.5795 6.94563 20.0792 7.4094C21.5984 7.85385 22.8643 8.64613 23.8966 9.74759L21.2673 12.1244C20.6635 11.4288 19.9039 10.9457 19.008 10.6751C18.1121 10.3853 17.1578 10.366 16.145 10.5785C14.4311 10.9457 13.1651 11.7766 12.3276 13.0713C11.5096 14.366 11.2954 15.8733 11.646 17.5738C11.9966 19.2743 12.8146 20.5496 14.0805 21.3999C15.3659 22.2501 16.8656 22.5014 18.5795 22.1342C19.5923 21.9216 20.4493 21.5158 21.1504 20.8975C21.871 20.2791 22.3579 19.5255 22.6306 18.6559L26 19.7574C25.5131 21.1873 24.6756 22.4241 23.507 23.4675C22.3385 24.5304 20.9556 25.2067 19.3391 25.5545Z" fill="#1E1E1C"/>
</g>
<defs>
<clipPath id="clip0_3118_82140">
<rect width="35" height="43" fill="white"/>
</clipPath>
</defs>
</svg>
