<svg width="35" height="43" viewBox="0 0 35 43" fill="none" xmlns="http://www.w3.org/2000/svg">
<path d="M4.0799 27.7216L17.5 43L30.9257 27.7153C30.9968 27.634 31.4741 27.0283 31.4741 27.0283L31.4764 27.0244C33.7679 24.1104 35.0057 20.5513 35 16.8929C35 12.4126 33.1562 8.11583 29.8744 4.9478C26.5925 1.77978 22.1413 0 17.5 0C12.8587 0 8.40753 1.77978 5.12564 4.9478C1.84376 8.11583 1.74096e-05 12.4126 1.74096e-05 16.8929C-0.00535604 20.5528 1.23329 24.1133 3.52595 27.0283C3.52595 27.0283 4.00369 27.6339 4.0799 27.7216Z" fill="#922F27"/>
<path fill-rule="evenodd" clip-rule="evenodd" d="M7 10.9761L7 12.4079L17.9609 9.48413L28.9979 12.3661L29 10.9863L17.8803 8L7 10.9761Z" fill="white"/>
<path fill-rule="evenodd" clip-rule="evenodd" d="M25.0017 8L27.6667 8.00581L27.665 9.46931L25 9.4635L25.0017 8Z" fill="white"/>
<path d="M14.544 17.9806L14.5513 13.0127L20.958 13.0237L20.9459 21.2256L21.928 21.2272L21.921 26.0003L19.8945 25.9969L19.8984 23.3863L15.3154 23.3784L15.3116 25.989L13.2852 25.9855L13.2922 21.2124C13.5675 21.2129 13.7963 21.1224 13.9784 20.9441C14.1606 20.7658 14.2987 20.4381 14.3956 19.9577C14.4924 19.4806 14.5427 18.8183 14.544 17.9806ZM18.7636 21.2218L18.7724 15.2019L16.5745 15.1981L16.5703 18.0425C16.568 19.6108 16.369 20.669 15.9707 21.217L18.7636 21.2218Z" fill="white"/>
</svg>
