<svg width="46" height="58" viewBox="0 0 46 58" fill="none" xmlns="http://www.w3.org/2000/svg">
<path d="M1.60782 31.2696C5.17342 40.8522 22.9941 58 22.9941 58C22.9941 58 40.8292 40.8522 44.3948 31.2696C47.9604 21.687 47.4438 0.806956 22.9941 0C-1.45566 0.806956 -1.95778 21.687 1.60782 31.2696Z" fill="#5B5B5B"/>
<path d="M25.7061 32.4277C22.5044 33.105 19.6323 32.6145 17.0898 30.9094C14.5472 29.2277 12.9464 26.8218 12.2872 23.6919C11.6281 20.5386 12.0989 17.689 13.7468 15.143C15.3712 12.5737 17.796 10.9387 20.9977 10.2613C22.9281 9.84085 24.788 9.93428 26.6007 10.4949C28.4369 11.0321 29.9672 11.9898 31.2149 13.3211L28.0367 16.1941C27.3069 15.3533 26.3888 14.7693 25.3059 14.4423C24.2229 14.0919 23.0694 14.0686 21.8452 14.3255C19.7735 14.7693 18.2433 15.7737 17.231 17.3386C16.2423 18.9036 15.9833 20.7255 16.4071 22.781C16.8308 24.8364 17.8196 26.3781 19.3498 27.4058C20.9035 28.4335 22.7163 28.7372 24.7879 28.2934C26.0121 28.0364 27.048 27.5459 27.8955 26.7985C28.7665 26.051 29.3551 25.1401 29.6847 24.089L33.7574 25.4204C33.1688 27.1489 32.1565 28.6437 30.744 29.9051C29.3315 31.1897 27.6601 32.0072 25.7061 32.4277Z" fill="white"/>
</svg>
