<svg width="54" height="52" viewBox="0 0 54 52" fill="none" xmlns="http://www.w3.org/2000/svg">
<rect x="2.02637" y="1.5" width="49.8976" height="49" rx="24.5" fill="#5B5B5B" stroke="white" stroke-width="3"/>
<path d="M29.7061 37.4277C26.5044 38.105 23.6323 37.6145 21.0898 35.9094C18.5472 34.2277 16.9464 31.8218 16.2872 28.6919C15.6281 25.5386 16.0989 22.689 17.7468 20.143C19.3712 17.5737 21.796 15.9387 24.9977 15.2613C26.9281 14.8408 28.788 14.9343 30.6007 15.4949C32.4369 16.0321 33.9672 16.9898 35.2149 18.3211L32.0367 21.1941C31.3069 20.3533 30.3888 19.7693 29.3059 19.4423C28.2229 19.0919 27.0694 19.0686 25.8452 19.3255C23.7735 19.7693 22.2433 20.7737 21.231 22.3386C20.2423 23.9036 19.9833 25.7255 20.4071 27.781C20.8308 29.8364 21.8196 31.3781 23.3498 32.4058C24.9035 33.4335 26.7163 33.7372 28.7879 33.2934C30.0121 33.0364 31.048 32.5459 31.8955 31.7985C32.7665 31.051 33.3551 30.1401 33.6847 29.089L37.7574 30.4204C37.1688 32.1489 36.1565 33.6437 34.744 34.9051C33.3315 36.1897 31.6601 37.0072 29.7061 37.4277Z" fill="white"/>
</svg>
