<svg width="173" height="130" viewBox="0 0 173 130" fill="none" xmlns="http://www.w3.org/2000/svg">
<path fill-rule="evenodd" clip-rule="evenodd" d="M38.8559 125.141L38.88 95.688C38.8821 93.1184 36.8162 91.0104 34.2889 91.0033L4.62291 90.9198C2.09558 90.9127 0.0262015 93.0091 0.0241074 95.5787L1.12357e-05 125.032C-0.00212107 127.601 2.06384 129.709 4.59117 129.716L34.2571 129.8C36.7844 129.807 38.8538 127.711 38.8559 125.141Z" fill="#5B5B5B"/>
<path fill-rule="evenodd" clip-rule="evenodd" d="M87.8212 67.1366L87.84 44.2287C87.8416 42.2301 86.2348 40.5906 84.2691 40.585L61.1956 40.5201C59.2299 40.5146 57.6203 42.1451 57.6187 44.1437L57.6 67.0515C57.5983 69.0501 59.2052 70.6897 61.1709 70.6952L84.2444 70.7601C86.2101 70.7657 87.8196 69.1351 87.8212 67.1366Z" fill="#C4C4C4"/>
<path fill-rule="evenodd" clip-rule="evenodd" d="M138.992 60.447L139 50.6294C139.001 49.7729 138.312 49.0702 137.47 49.0678L127.581 49.04C126.739 49.0376 126.049 49.7364 126.048 50.593L126.04 60.4106C126.039 61.2671 126.728 61.9698 127.57 61.9722L137.459 62C138.301 62.0024 138.991 61.3036 138.992 60.447Z" fill="#C4C4C4"/>
<path fill-rule="evenodd" clip-rule="evenodd" d="M31.6649 64.9466L31.6801 46.4022C31.6814 44.7843 30.3806 43.4571 28.7893 43.4525L10.1108 43.4C8.51949 43.3955 7.21655 44.7155 7.21523 46.3334L7.20006 64.8778C7.19872 66.4957 8.4995 67.823 10.0908 67.8275L28.7693 67.88C30.3606 67.8845 31.6636 66.5645 31.6649 64.9466Z" fill="#5B5B5B"/>
<path fill-rule="evenodd" clip-rule="evenodd" d="M123.827 92.6516L123.84 76.2888C123.841 74.8613 122.693 73.6902 121.289 73.6862L104.808 73.6398C103.404 73.6359 102.255 74.8006 102.253 76.2281L102.24 92.5908C102.239 94.0184 103.387 95.1895 104.791 95.1935L121.272 95.2398C122.676 95.2438 123.825 94.0791 123.827 92.6516Z" fill="#5B5B5B"/>
<path fill-rule="evenodd" clip-rule="evenodd" d="M59.0319 23.1271L59.0399 13.3094C59.0406 12.4529 58.352 11.7502 57.5095 11.7478L47.6209 11.72C46.7784 11.7176 46.0886 12.4165 46.088 13.273L46.0799 23.0906C46.0792 23.9472 46.7679 24.6498 47.6103 24.6522L57.499 24.68C58.3414 24.6824 59.0312 23.9836 59.0319 23.1271Z" fill="#5B5B5B"/>
<path fill-rule="evenodd" clip-rule="evenodd" d="M83.5048 119.667L83.52 101.122C83.5213 99.5044 82.2206 98.1771 80.6293 98.1726L61.9507 98.1201C60.3595 98.1156 59.0565 99.4356 59.0552 101.053L59.04 119.598C59.0387 121.216 60.3395 122.543 61.9308 122.548L80.6093 122.6C82.2006 122.605 83.5035 121.285 83.5048 119.667Z" fill="#922F27"/>
<path fill-rule="evenodd" clip-rule="evenodd" d="M24.4648 21.7467L24.48 3.20221C24.4813 1.5843 23.1805 0.257069 21.5893 0.252564L2.9107 0.200038C1.31941 0.195533 0.0164747 1.51551 0.0151568 3.13339L-1.539e-05 21.6778C-0.00135809 23.2957 1.29943 24.623 2.89071 24.6275L21.5693 24.68C23.1606 24.6845 24.4635 23.3645 24.4648 21.7467Z" fill="#922F27"/>
<path fill-rule="evenodd" clip-rule="evenodd" d="M138.989 127.963L139 115.085C139.001 113.961 138.098 113.04 136.993 113.036L124.021 113C122.916 112.997 122.011 113.914 122.011 115.037L122 127.915C121.999 129.039 122.902 129.96 124.007 129.964L136.979 130C138.084 130.003 138.989 129.086 138.989 127.963Z" fill="#922F27"/>
<path fill-rule="evenodd" clip-rule="evenodd" d="M172.826 94.0053L173 107.647C173.015 108.838 172.072 109.823 170.904 109.837L157.192 110C156.024 110.014 155.056 109.051 155.041 107.861L154.867 94.2191C154.852 93.0289 155.795 92.0438 156.963 92.0299L170.674 91.8667C171.842 91.8528 172.81 92.8151 172.826 94.0053Z" fill="#C4C4C4"/>
</svg>
