<svg width="24" height="24" viewBox="0 0 24 24" fill="none" xmlns="http://www.w3.org/2000/svg">
<path d="M16.8356 4.5C17.3817 4.49954 17.9223 4.6081 18.4259 4.81931C18.9295 5.03052 19.3858 5.34014 19.7681 5.73C20.5559 6.52979 20.9975 7.60737 20.9975 8.73C20.9975 9.85264 20.5559 10.9302 19.7681 11.73L11.9981 19.5975L4.22812 11.73C3.44031 10.9302 2.99871 9.85264 2.99871 8.73C2.99871 7.60737 3.44031 6.52979 4.22812 5.73C4.61069 5.34042 5.06705 5.03096 5.57056 4.81972C6.07406 4.60848 6.6146 4.49968 7.16062 4.49968C7.70664 4.49968 8.24719 4.60848 8.75069 4.81972C9.25419 5.03096 9.71055 5.34042 10.0931 5.73L11.9981 7.68L13.8956 5.745C14.2768 5.35049 14.7336 5.0369 15.2388 4.82298C15.7439 4.60906 16.287 4.49921 16.8356 4.5ZM16.8356 3C16.0898 2.99937 15.3514 3.14764 14.6637 3.43613C13.976 3.72461 13.3528 4.1475 12.8306 4.68L11.9981 5.52L11.1656 4.68C10.6428 4.14846 10.0195 3.72631 9.33186 3.43814C8.64426 3.14998 7.90617 3.00157 7.16062 3.00157C6.41508 3.00157 5.67699 3.14998 4.98938 3.43814C4.30178 3.72631 3.67841 4.14846 3.15562 4.68C2.09203 5.76272 1.49609 7.21977 1.49609 8.7375C1.49609 10.2552 2.09203 11.7123 3.15562 12.795L11.9981 21.75L20.8406 12.795C21.9042 11.7123 22.5002 10.2552 22.5002 8.7375C22.5002 7.21977 21.9042 5.76272 20.8406 4.68C20.318 4.14818 19.6947 3.72573 19.007 3.4373C18.3194 3.14886 17.5813 3.00021 16.8356 3Z" fill="#C4C4C4"/>
</svg>
