<svg width="17" height="17" viewBox="0 0 17 17" fill="none" xmlns="http://www.w3.org/2000/svg">
<path d="M0.277344 12.943V14.2773C0.277344 15.3805 2.96484 16.2773 6.27734 16.2773C9.58984 16.2773 12.2773 15.3805 12.2773 14.2773V12.943C10.9867 13.8523 8.62734 14.2773 6.27734 14.2773C3.92734 14.2773 1.56797 13.8523 0.277344 12.943ZM10.2773 4.27734C13.5898 4.27734 16.2773 3.38047 16.2773 2.27734C16.2773 1.17422 13.5898 0.277344 10.2773 0.277344C6.96484 0.277344 4.27734 1.17422 4.27734 2.27734C4.27734 3.38047 6.96484 4.27734 10.2773 4.27734ZM0.277344 9.66484V11.2773C0.277344 12.3805 2.96484 13.2773 6.27734 13.2773C9.58984 13.2773 12.2773 12.3805 12.2773 11.2773V9.66484C10.9867 10.7273 8.62422 11.2773 6.27734 11.2773C3.93047 11.2773 1.56797 10.7273 0.277344 9.66484ZM13.2773 10.0086C15.068 9.66172 16.2773 9.01797 16.2773 8.27734V6.94297C15.5523 7.45547 14.4867 7.80547 13.2773 8.02109V10.0086ZM6.27734 5.27734C2.96484 5.27734 0.277344 6.39609 0.277344 7.77734C0.277344 9.15859 2.96484 10.2773 6.27734 10.2773C9.58984 10.2773 12.2773 9.15859 12.2773 7.77734C12.2773 6.39609 9.58984 5.27734 6.27734 5.27734ZM13.1305 7.03672C15.0055 6.69922 16.2773 6.03672 16.2773 5.27734V3.94297C15.168 4.72734 13.2617 5.14922 11.2555 5.24922C12.1773 5.69609 12.8555 6.29609 13.1305 7.03672Z" fill="#242424"/>
</svg>
