<svg width="17" height="17" viewBox="0 0 17 17" fill="none" xmlns="http://www.w3.org/2000/svg">
<path d="M13.1662 16.2773C12.3411 16.2773 11.5498 15.9496 10.9663 15.3661C10.3829 14.7827 10.0551 13.9914 10.0551 13.1662C10.0551 12.3411 10.3829 11.5498 10.9663 10.9663C11.5498 10.3829 12.3411 10.0551 13.1662 10.0551C13.9914 10.0551 14.7827 10.3829 15.3661 10.9663C15.9496 11.5498 16.2773 12.3411 16.2773 13.1662C16.2773 13.9914 15.9496 14.7827 15.3661 15.3661C14.7827 15.9496 13.9914 16.2773 13.1662 16.2773V16.2773ZM3.38845 6.49957C2.9799 6.49957 2.57534 6.4191 2.19788 6.26275C1.82043 6.1064 1.47746 5.87724 1.18857 5.58834C0.899673 5.29945 0.670511 4.95648 0.514163 4.57903C0.357815 4.20157 0.277344 3.79701 0.277344 3.38845C0.277344 2.9799 0.357815 2.57534 0.514163 2.19788C0.670511 1.82043 0.899673 1.47746 1.18857 1.18857C1.47746 0.899674 1.82043 0.670511 2.19788 0.514163C2.57534 0.357815 2.9799 0.277344 3.38845 0.277344C4.21357 0.277344 5.0049 0.605121 5.58834 1.18857C6.17179 1.77201 6.49957 2.56334 6.49957 3.38845C6.49957 4.21357 6.17179 5.0049 5.58834 5.58834C5.0049 6.17179 4.21357 6.49957 3.38845 6.49957V6.49957ZM14.5627 0.735122L15.8196 1.99201L1.9929 15.8196L0.73601 14.5627L14.5618 0.735122H14.5627Z" fill="#000"/>
</svg>
