<svg width="21" height="12" viewBox="0 0 21 12" fill="none" xmlns="http://www.w3.org/2000/svg">
<path d="M5.76376 4.63176L7.32593 10.4619L6.17797 10.7695L2.26312 8.06924L3.20042 11.5673L1.85515 11.9278L0.292969 6.09766L1.44094 5.79006L5.36025 8.50696L4.41848 4.99223L5.76376 4.63176Z" fill="#000"/>
<path d="M12.7522 9.00792L8.94062 10.0292L7.37844 4.19911L11.1004 3.20182L11.4351 4.45114L9.14815 5.06393L9.42265 6.08836L11.4406 5.54767L11.7753 6.79698L9.7574 7.33768L10.0408 8.39543L12.4175 7.75861L12.7522 9.00792Z" fill="#000"/>
<path d="M19.3173 1.00011L20.6984 0.630033L20.4938 6.93357L19.1216 7.30125L16.808 3.90416L16.5208 7.99815L15.1486 8.36582L11.7299 3.03314L13.3532 2.59817L15.3979 5.99592L15.5864 1.9998L17.0303 1.6129L19.2275 4.96979L19.3173 1.00011Z" fill="#000"/>
</svg>
