<svg width="24" height="24" viewBox="0 0 24 24" fill="none" xmlns="http://www.w3.org/2000/svg">
<circle cx="12" cy="12" r="9" fill="#FFE04D"/>
<path d="M13.0491 17H10.9491V10.7H13.0491V17ZM10.7671 8.53C10.7671 8.17533 10.8884 7.89067 11.1311 7.676C11.3737 7.452 11.6771 7.34 12.0411 7.34C12.3677 7.34 12.6477 7.452 12.8811 7.676C13.1144 7.9 13.2311 8.18467 13.2311 8.53C13.2311 8.91267 13.1144 9.22067 12.8811 9.454C12.6477 9.68733 12.3677 9.804 12.0411 9.804C11.6677 9.804 11.3597 9.692 11.1171 9.468C10.8837 9.23467 10.7671 8.922 10.7671 8.53Z" fill="white"/>
</svg>