<svg width="65" height="66" viewBox="0 0 65 66" fill="none" xmlns="http://www.w3.org/2000/svg">
<path d="M53.8165 18.2465C56.8186 22.5297 58.4592 27.6154 58.5289 32.8397H55.2157C55.1373 28.074 53.5617 23.4499 50.7072 19.625C47.7778 15.6999 43.6583 12.8265 38.9629 11.4332C34.2675 10.0399 29.2475 10.2013 24.6513 11.8933C20.0551 13.5854 16.1288 16.7174 13.4576 20.8227L13.0805 21.4022H13.7719H21.9687V24.7147H8.5V11.2459H11.8125V16.3147V17.353L12.476 16.5543C15.8979 12.4347 20.5072 9.47084 25.6754 8.06679C30.8435 6.66274 36.3189 6.88688 41.355 8.70862C46.3911 10.5304 50.7427 13.8611 53.8165 18.2465Z" fill="#242424" stroke="white" stroke-width="0.75"/>
<path d="M11.1835 48.183C8.18137 43.8998 6.54085 38.8141 6.47107 33.5898H9.78433C9.86267 38.3556 11.4383 42.9796 14.2928 46.8045C17.2222 50.7297 21.3417 53.6031 26.0371 54.9963C30.7325 56.3896 35.7525 56.2283 40.3487 54.5362C44.9449 52.8442 48.8712 49.7121 51.5425 45.6069L51.9195 45.0273H51.2281H43.0313V41.7148H56.5V55.1836H53.1875V50.1148V49.0765L52.524 49.8752C49.1021 53.9948 44.4928 56.9587 39.3246 58.3627C34.1565 59.7668 28.6811 59.5427 23.645 57.7209C18.6089 55.8992 14.2573 52.5685 11.1835 48.183Z" fill="#242424" stroke="white" stroke-width="0.75"/>
</svg>
