<svg width="57" height="58" viewBox="0 0 57 58" fill="none" xmlns="http://www.w3.org/2000/svg">
<path d="M16.6876 16.7412L16.6876 16.7412C16.6876 16.4588 16.7598 16.1811 16.8972 15.9345C17.0347 15.6879 17.233 15.4805 17.4731 15.3321C17.7133 15.1836 17.9874 15.0991 18.2695 15.0864C18.5516 15.0737 18.8322 15.1333 19.0847 15.2596L19.0848 15.2597L43.4597 27.4472L43.4598 27.4472C43.735 27.5847 43.9664 27.7962 44.1282 28.0578C44.2899 28.3195 44.3756 28.6211 44.3756 28.9287C44.3756 29.2363 44.2899 29.5379 44.1282 29.7996C43.9664 30.0612 43.735 30.2727 43.4598 30.4102L43.4597 30.4102L19.0849 42.5977C19.0848 42.5977 19.0848 42.5977 19.0848 42.5977C18.8547 42.7126 18.6011 42.7724 18.3439 42.7724C17.9046 42.7724 17.4833 42.5979 17.1727 42.2873C16.8621 41.9767 16.6876 41.5554 16.6876 41.1162L16.6876 16.7412Z" fill="#922F27" stroke="white" stroke-width="0.75"/>
<path d="M42.2502 8.34984C38.1801 5.63027 33.395 4.17871 28.4999 4.17871C21.9358 4.17871 15.6405 6.78629 10.999 11.4278C6.35746 16.0693 3.74988 22.3646 3.74988 28.9287C3.74988 33.8238 5.20144 38.609 7.921 42.6791C10.6406 46.7492 14.506 49.9215 19.0285 51.7947C23.5509 53.668 28.5273 54.1581 33.3284 53.2031C38.1294 52.2482 42.5394 49.8909 46.0008 46.4296C49.4621 42.9683 51.8193 38.5582 52.7743 33.7572C53.7293 28.9562 53.2392 23.9798 51.3659 19.4573C49.4926 14.9348 46.3204 11.0694 42.2502 8.34984ZM12.9092 5.59559C17.524 2.51205 22.9496 0.866211 28.4999 0.866211C35.9425 0.866211 43.0803 3.82279 48.3431 9.08553C53.6058 14.3483 56.5624 21.4861 56.5624 28.9287C56.5624 34.4789 54.9165 39.9045 51.833 44.5194C48.7494 49.1343 44.3667 52.7311 39.2389 54.8551C34.1112 56.9791 28.4687 57.5348 23.0252 56.452C17.5816 55.3692 12.5813 52.6965 8.65669 48.7719C4.73208 44.8473 2.05939 39.847 0.976589 34.4034C-0.106209 28.9598 0.449522 23.3174 2.57351 18.1897C4.69749 13.0619 8.29433 8.67914 12.9092 5.59559Z" fill="#922F27" stroke="white" stroke-width="0.75"/>
</svg>
