<svg width="22" height="19" viewBox="0 0 22 19" fill="none" xmlns="http://www.w3.org/2000/svg">
<path d="M15.8375 1.5C16.3836 1.49954 16.9243 1.6081 17.4278 1.81931C17.9314 2.03052 18.3877 2.34014 18.77 2.73C19.5579 3.52979 19.9995 4.60737 19.9995 5.73C19.9995 6.85264 19.5579 7.93022 18.77 8.73L11 16.5975L3.23004 8.73C2.44223 7.93022 2.00064 6.85264 2.00064 5.73C2.00064 4.60737 2.44223 3.52979 3.23004 2.73C3.61261 2.34042 4.06898 2.03096 4.57248 1.81972C5.07598 1.60848 5.61653 1.49968 6.16255 1.49968C6.70856 1.49968 7.24911 1.60848 7.75261 1.81972C8.25611 2.03096 8.71248 2.34042 9.09505 2.73L11 4.68L12.8975 2.745C13.2787 2.35049 13.7356 2.0369 14.2407 1.82298C14.7459 1.60906 15.289 1.49921 15.8375 1.5ZM15.8375 2.01214e-06C15.0918 -0.000630028 14.3534 0.147643 13.6656 0.436128C12.9779 0.724614 12.3547 1.1475 11.8325 1.68L11 2.52L10.1675 1.68C9.64476 1.14846 9.02139 0.726309 8.33379 0.438145C7.64618 0.149981 6.90809 0.00157307 6.16255 0.00157307C5.417 0.00157307 4.67891 0.149981 3.9913 0.438145C3.3037 0.726309 2.68033 1.14846 2.15755 1.68C1.09395 2.76272 0.498016 4.21977 0.498016 5.7375C0.498016 7.25523 1.09395 8.71228 2.15755 9.795L11 18.75L19.8425 9.795C20.9061 8.71228 21.5021 7.25523 21.5021 5.7375C21.5021 4.21977 20.9061 2.76272 19.8425 1.68C19.3199 1.14818 18.6966 0.725734 18.009 0.437298C17.3214 0.148862 16.5832 0.000207074 15.8375 2.01214e-06Z" fill="#858585"/>
</svg>
