<svg width="28" height="28" viewBox="0 0 28 28" fill="none" xmlns="http://www.w3.org/2000/svg">
<path d="M13.9998 5.1125L16.5873 10.3438L17.0186 11.2812L17.9561 11.4219L23.7311 12.2563L19.6248 16.2875L18.9217 16.9719L19.0905 17.9094L20.0748 23.6562L14.9092 20.9469L13.9998 20.5625L13.128 21.0219L7.96233 23.6938L8.89983 17.9469L9.06858 17.0094L8.37483 16.2875L4.23108 12.2094L10.0061 11.375L10.9436 11.2344L11.3748 10.2969L13.9998 5.1125ZM13.9998 0.875L9.7342 9.51875L0.199829 10.8969L7.09983 17.6281L5.46858 27.125L13.9998 22.6437L22.5311 27.125L20.8998 17.6281L27.7998 10.9062L18.2655 9.51875L13.9998 0.875Z" fill="#F4B556"/>
</svg>
