<svg width="24" height="24" viewBox="0 0 24 24" fill="none" xmlns="http://www.w3.org/2000/svg">
<circle cx="12" cy="12" r="9" fill="#FFE04D"/>
<path d="M12.8026 17H11.1926V10.7H12.8026V17ZM11.0246 8.432C11.0246 8.152 11.1179 7.928 11.3046 7.76C11.5006 7.58267 11.7433 7.494 12.0326 7.494C12.2846 7.494 12.4993 7.58267 12.6766 7.76C12.8633 7.93733 12.9566 8.16133 12.9566 8.432C12.9566 8.73067 12.8633 8.97333 12.6766 9.16C12.4993 9.34667 12.2846 9.44 12.0326 9.44C11.7433 9.44 11.5006 9.34667 11.3046 9.16C11.1179 8.97333 11.0246 8.73067 11.0246 8.432Z" fill="#242424"/>
</svg>
