<svg width="24" height="24" viewBox="0 0 24 24" fill="none" xmlns="http://www.w3.org/2000/svg">
<path d="M18.75 9.75H14.25V11.25H18.75V9.75Z" fill="black"/>
<path d="M9.75 15.75H8.25V14.25H6.75V15.75H5.25V17.25H6.75V18.75H8.25V17.25H9.75V15.75Z" fill="black"/>
<path d="M9.75 6.75H5.25V8.25H9.75V6.75Z" fill="black"/>
<path d="M18.75 12.75H14.25V14.25H18.75V12.75Z" fill="black"/>
<path d="M20.25 2.25H3.75C3.35232 2.25046 2.97105 2.40864 2.68984 2.68984C2.40864 2.97105 2.25046 3.35232 2.25 3.75V20.25C2.25046 20.6477 2.40864 21.0289 2.68984 21.3102C2.97105 21.5914 3.35232 21.7495 3.75 21.75H20.25C20.6477 21.7495 21.0289 21.5914 21.3102 21.3102C21.5914 21.0289 21.7495 20.6477 21.75 20.25V3.75C21.7495 3.35232 21.5914 2.97105 21.3102 2.68984C21.0289 2.40864 20.6477 2.25046 20.25 2.25ZM11.25 3.75V11.25H3.75V3.75H11.25ZM3.75 12.75H11.25V20.25H3.75V12.75ZM12.75 20.25V3.75H20.25V20.25H12.75Z" fill="black"/>
</svg>
