<svg width="95" height="14" viewBox="0 0 95 14" fill="none" xmlns="http://www.w3.org/2000/svg">
<g clip-path="url(#clip0_2422_3681)">
<path d="M76.4518 6.5059L72.816 2.47909H70.6906V11.8026H72.9098V5.85412L76.2289 9.37849H76.639L79.9015 5.85412V11.8026H82.1208V2.47909H79.9954L76.4518 6.5059ZM92.6939 2.47909L87.1934 8.53901V2.47909H84.9742V11.8026H87.0073L92.5077 5.74264V11.8026H94.727V2.47909H92.6939ZM58.7371 5.89042C58.7371 7.37494 59.5523 8.54471 60.8029 9.03471L58.4577 11.8026H61.1737L63.3074 9.28464H65.6163V11.8026H67.8356V2.47909H62.1858C60.0791 2.47909 58.7371 3.91383 58.7371 5.89042ZM65.6179 4.53242V7.28938H62.597C61.5895 7.28938 61.0487 6.7299 61.0487 5.91012C61.0487 5.08931 61.6087 4.52983 62.597 4.52983L65.6179 4.53242ZM48.4249 4.34368C48.289 7.5502 47.6097 9.62012 46.2803 9.62012H45.9474V11.8586L46.302 11.8772C48.9683 12.0255 50.4419 9.69479 50.6835 4.60449H54.1903V11.8026H56.4054V2.47909H48.4995L48.4249 4.34368ZM40.071 2.34842C37.0693 2.34842 34.9097 4.41834 34.9097 7.14005C34.9097 9.9556 37.2596 11.9519 40.071 11.9519C42.9991 11.9519 45.2738 9.84412 45.2738 7.14005C45.2738 4.43597 42.9991 2.34842 40.071 2.34842ZM40.071 9.71397C38.3744 9.71397 37.2191 8.61368 37.2191 7.14005C37.2191 5.6296 38.3754 4.55938 40.071 4.55938C41.766 4.55938 42.9612 5.67886 42.9612 7.14005C42.9612 8.60175 41.7494 9.71397 40.071 9.71397ZM32.5561 2.4962H24.7239L24.6487 4.36131C24.5377 7.04723 23.8341 9.60249 22.5041 9.63879L21.8891 9.65797V14.0042L24.1276 13.9995V11.8036H31.9028V13.9995H34.1599V9.63879H32.5561V2.4962ZM30.3368 9.63879H25.6017C26.4028 8.42753 26.8322 6.6739 26.9068 4.62316H30.3374L30.3368 9.63879ZM16.704 0.258789H14.6299V11.6662H16.704V0.258789ZM2.70396 2.59212H0.629883V13.9995H2.70396V2.59212ZM7.37062 1.81434H5.29655V13.2218H7.37062V1.81434ZM12.0373 1.03657H9.96322V12.444H12.0373V1.03657Z" fill="#242424"/>
</g>
<defs>
<clipPath id="clip0_2422_3681">
<rect width="94.3704" height="14" fill="white" transform="translate(0.629883)"/>
</clipPath>
</defs>
</svg>
