<svg width="56" height="56" viewBox="0 0 56 56" fill="none" xmlns="http://www.w3.org/2000/svg">
<rect width="56" height="56" rx="28" fill="#FFE04D"/>
<path d="M21.25 37.0001C21.0511 37.0001 20.8603 36.921 20.7197 36.7804C20.579 36.6397 20.5 36.449 20.5 36.2501V19.7501C20.5 19.6197 20.5339 19.4916 20.5985 19.3784C20.6631 19.2652 20.7561 19.1708 20.8682 19.1044C20.9804 19.0381 21.108 19.0021 21.2383 19.0001C21.3686 18.9981 21.4972 19.03 21.6114 19.0928L36.6114 27.3428C36.7291 27.4075 36.8273 27.5027 36.8956 27.6183C36.964 27.7339 37 27.8657 37 28C37 28.1343 36.964 28.2662 36.8956 28.3818C36.8273 28.4974 36.7291 28.5925 36.6114 28.6572L21.6114 36.9072C21.5007 36.9681 21.3764 37 21.25 37.0001Z" fill="#242424"/>
</svg>
